<mxfile modified="2023-09-26T01:21:00.137Z" host="app.diagrams.net" agent="Mozilla/5.0 (Windows NT 10.0; Win64; x64) AppleWebKit/537.36 (KHTML, like Gecko) Chrome/117.0.0.0 Safari/537.36" etag="uuMimJLYemIwAMX7khCr" version="21.8.2" type="github">
  <diagram id="WI9T0HZ2pTsCkuznbFz-" name="Page-1">
    <mxGraphModel dx="1500" dy="763" grid="1" gridSize="10" guides="1" tooltips="1" connect="1" arrows="1" fold="1" page="1" pageScale="1" pageWidth="1169" pageHeight="827" math="0" shadow="0">
      <root>
        <mxCell id="0" />
        <mxCell id="1" parent="0" />
        <mxCell id="c07P4ZYzcnsUTolsN5iu-27" style="edgeStyle=orthogonalEdgeStyle;rounded=0;orthogonalLoop=1;jettySize=auto;html=1;" parent="1" source="c07P4ZYzcnsUTolsN5iu-8" target="c07P4ZYzcnsUTolsN5iu-24" edge="1">
          <mxGeometry relative="1" as="geometry" />
        </mxCell>
        <mxCell id="c07P4ZYzcnsUTolsN5iu-8" value="IMDB" style="shape=image;verticalLabelPosition=bottom;labelBackgroundColor=#ffffff;verticalAlign=top;aspect=fixed;imageAspect=0;image=data:image/svg+xml,PHN2ZyB4bWxuczpjYz0iaHR0cDovL2NyZWF0aXZlY29tbW9ucy5vcmcvbnMjIiB4bWxuczpkYz0iaHR0cDovL3B1cmwub3JnL2RjL2VsZW1lbnRzLzEuMS8iIHhtbG5zOmlua3NjYXBlPSJodHRwOi8vd3d3Lmlua3NjYXBlLm9yZy9uYW1lc3BhY2VzL2lua3NjYXBlIiB4bWxuczpyZGY9Imh0dHA6Ly93d3cudzMub3JnLzE5OTkvMDIvMjItcmRmLXN5bnRheC1ucyMiIHhtbG5zOnNvZGlwb2RpPSJodHRwOi8vc29kaXBvZGkuc291cmNlZm9yZ2UubmV0L0RURC9zb2RpcG9kaS0wLmR0ZCIgeG1sbnM6c3ZnPSJodHRwOi8vd3d3LnczLm9yZy8yMDAwL3N2ZyIgeG1sbnM9Imh0dHA6Ly93d3cudzMub3JnLzIwMDAvc3ZnIiB4bWxuczp4bGluaz0iaHR0cDovL3d3dy53My5vcmcvMTk5OS94bGluayIgdmVyc2lvbj0iMS4xIiBpZD0ic3ZnNDM5ODQiIGlua3NjYXBlOnZlcnNpb249IjAuOTIuMyAoMjQwNTU0NiwgMjAxOC0wMy0xMSkiIHNvZGlwb2RpOmRvY25hbWU9ImNsb3VkLnN2ZyIgeD0iMHB4IiB5PSIwcHgiIHZpZXdCb3g9IjAgMCA4NS41NCA0My4xIiBzdHlsZT0iZW5hYmxlLWJhY2tncm91bmQ6bmV3IDAgMCA4NS41NCA0My4xOyIgeG1sOnNwYWNlPSJwcmVzZXJ2ZSI+JiN4YTs8c29kaXBvZGk6bmFtZWR2aWV3IGJvcmRlcmNvbG9yPSIjNjY2NjY2IiBib3JkZXJvcGFjaXR5PSIxIiBmaXQtbWFyZ2luLWJvdHRvbT0iMCIgZml0LW1hcmdpbi1sZWZ0PSIwIiBmaXQtbWFyZ2luLXJpZ2h0PSIwIiBmaXQtbWFyZ2luLXRvcD0iMCIgZ3JpZHRvbGVyYW5jZT0iMTAiIGd1aWRldG9sZXJhbmNlPSIxMCIgaWQ9Im5hbWVkdmlldzQzOTg2IiBpbmtzY2FwZTpjdXJyZW50LWxheWVyPSJzdmc0Mzk4NCIgaW5rc2NhcGU6Y3g9IjQyLjgyODY2NCIgaW5rc2NhcGU6Y3k9IjMwLjkyMDQ4NiIgaW5rc2NhcGU6cGFnZW9wYWNpdHk9IjAiIGlua3NjYXBlOnBhZ2VzaGFkb3c9IjIiIGlua3NjYXBlOndpbmRvdy1oZWlnaHQ9IjEwMTciIGlua3NjYXBlOndpbmRvdy1tYXhpbWl6ZWQ9IjEiIGlua3NjYXBlOndpbmRvdy13aWR0aD0iMTkyMCIgaW5rc2NhcGU6d2luZG93LXg9Ii04IiBpbmtzY2FwZTp3aW5kb3cteT0iLTgiIGlua3NjYXBlOnpvb209IjguNzc5MzQ3NiIgb2JqZWN0dG9sZXJhbmNlPSIxMCIgcGFnZWNvbG9yPSIjZmZmZmZmIiBzaG93Z3JpZD0iZmFsc2UiPiYjeGE7CTwvc29kaXBvZGk6bmFtZWR2aWV3PiYjeGE7PGcgaWQ9Imc0Mzk4MiIgdHJhbnNmb3JtPSJ0cmFuc2xhdGUoLTAuNzUwMTIzMzksLTAuNzUpIj4mI3hhOwk8dGl0bGUgaWQ9InRpdGxlNDM5NjIiPlBhZ2UtMTwvdGl0bGU+JiN4YTsJPGcgaWQ9Imdyb3VwNDgwNS0xIiB0cmFuc2Zvcm09InRyYW5zbGF0ZSgwLjc1MDcwMywtMC43NSkiPiYjeGE7CQk8dGl0bGUgaWQ9InRpdGxlNDM5NjQiPkNsb3VkPC90aXRsZT4mI3hhOwkJPGcgaWQ9InNoYXBlNDgwNi0yIiB0cmFuc2Zvcm09InRyYW5zbGF0ZSg0Mi4wNiwtNS4yNzI1KSI+JiN4YTsJCQk8dGl0bGUgaWQ9InRpdGxlNDM5NjYiPnBhdGgzMjQ0PC90aXRsZT4mI3hhOwkJCSYjeGE7CQkJCTxwYXRoIGlkPSJwYXRoNDM5NjgiIGlua3NjYXBlOmNvbm5lY3Rvci1jdXJ2YXR1cmU9IjAiIHN0eWxlPSJmaWxsOiNGRkZGRkY7c3Ryb2tlOiMwMEJDRjI7c3Ryb2tlLXdpZHRoOjEuNTtzdHJva2UtbWl0ZXJsaW1pdDozOyIgZD0iICAgICBNMzYuNywyMS41MnYtMC4yM2MwLTAuNzYtMC4xMS0xLjUyLTAuMy0yLjI1Yy0wLjI0LTQuNDYtNC4wNS03Ljg4LTguNTEtNy42NGMtMS43NiwwLjEtMy40NCwwLjc2LTQuNzgsMS45ICAgICBjLTEuODQtMi40My00Ljc1LTMuOC03LjgtMy42OWMtNS45MSwwLTEwLjM4LDUuMTYtMTAuNSwxMC45OGMwLDAuNDEsMC4xLDAuNzEsMC4xLDEuMTFDMS44LDIzLjIsMCwyNS44MSwwLDI5LjEyICAgICBjMC4wNSw0Ljc4LDMuODYsOC42Niw4LjY0LDguOGMwLjQ1LDMuMjgsMy40LDYuMzQsOC40NCw2LjM0YzQuMjYsMCw2LjgsMC4zNCw5LjktMy4xNWMxLjUxLDAuODUsMy4yMSwxLjMyLDQuOTUsMS4zNSAgICAgYzYsMCwxMC44LTUuMjUsMTAuOC0xMS4yNUM0Mi43MywyNy4wOSw0MC4zOSwyMy4zNCwzNi43LDIxLjUyeiIvPiYjeGE7CQk8L2c+JiN4YTsJCTxnIGlkPSJzaGFwZTQ4MDctNCI+JiN4YTsJCQk8dGl0bGUgaWQ9InRpdGxlNDM5NzEiPnBhdGgzMjQ2PC90aXRsZT4mI3hhOwkJCTxwYXRoIGlkPSJwYXRoNDM5NzMiIGlua3NjYXBlOmNvbm5lY3Rvci1jdXJ2YXR1cmU9IjAiIHN0eWxlPSJmaWxsOiMyQkM3RjQ7IiBkPSJNNzUsMzMuNjVjMCw2LjA1LTQuNCwxMC45NS05LjgzLDEwLjk1SDkuODMgICAgIEM0LjIyLDQzLjMzLDAsMzcuNTQsMCwzMC45MWMtMC4wMi0xLjYzLDAuMjQtMy4yNiwwLjc1LTQuODFjMC4yMi0wLjY4LDAuNS0xLjM0LDAuODMtMS45N2MxLjk1LTQuMDcsNS45OS02LjcyLDEwLjUtNi44OSAgICAgYzAuMjktMi4yNywwLjk3LTQuNDcsMi4wMi02LjVjMC4yNy0wLjUyLDAuNTUtMS4wMiwwLjg2LTEuNWMzLTQuNjgsNy45Mi03LjczLDEzLjUtNy43M2M4LjE0LDAsMTQuOSw2LjU1LDE2LjI3LDE1LjE3ICAgICBjMS45NS0xLjg1LDQuNTMtMi44OCw3LjIxLTIuOWM1LjIsMCw5LjU3LDMuOTMsMTAuODYsOS4yN2MwLjc2LTAuMjIsMS41NS0wLjMzLDIuMzQtMC4zM0M3MC42LDIyLjcsNzUsMjcuNTgsNzUsMzMuNjV6Ii8+JiN4YTsJCTwvZz4mI3hhOwkJPGcgaWQ9InNoYXBlNDgwOC02IiB0cmFuc2Zvcm09InRyYW5zbGF0ZSgxNS4wMTUpIj4mI3hhOwkJCTx0aXRsZSBpZD0idGl0bGU0Mzk3NiI+cGF0aDMyNDg8L3RpdGxlPiYjeGE7CQkJPHBhdGggaWQ9InBhdGg0Mzk3OCIgaW5rc2NhcGU6Y29ubmVjdG9yLWN1cnZhdHVyZT0iMCIgc3R5bGU9ImZpbGw6IzU1RDJGNjsiIGQ9Ik01OS45OCwzMy42NWMwLDYuMDUtNC40LDEwLjk1LTkuODMsMTAuOTVIMzUuMzggICAgIEwwLDkuMjNDMyw0LjU1LDcuOTIsMS41LDEzLjUsMS41YzguMTQsMCwxNC44OSw2LjU1LDE2LjI3LDE1LjE3YzEuOTQtMS44NSw0LjUyLTIuODgsNy4yLTIuOWM1LjIxLDAsOS41NywzLjkzLDEwLjg2LDkuMjcgICAgIGMwLjc2LTAuMjIsMS41NS0wLjMzLDIuMzQtMC4zM0M1NS41OCwyMi43LDU5Ljk4LDI3LjU4LDU5Ljk4LDMzLjY1eiIvPiYjeGE7CQk8L2c+JiN4YTsJPC9nPiYjeGE7PC9nPiYjeGE7PC9zdmc+;" parent="1" vertex="1">
          <mxGeometry x="80" y="302.5" width="86" height="43" as="geometry" />
        </mxCell>
        <mxCell id="c07P4ZYzcnsUTolsN5iu-36" style="edgeStyle=orthogonalEdgeStyle;rounded=0;orthogonalLoop=1;jettySize=auto;html=1;entryX=0;entryY=0.5;entryDx=0;entryDy=0;" parent="1" source="c07P4ZYzcnsUTolsN5iu-22" target="c07P4ZYzcnsUTolsN5iu-33" edge="1">
          <mxGeometry relative="1" as="geometry" />
        </mxCell>
        <mxCell id="c07P4ZYzcnsUTolsN5iu-22" value="Data Flow" style="shape=image;verticalLabelPosition=bottom;labelBackgroundColor=#ffffff;verticalAlign=top;aspect=fixed;imageAspect=0;image=data:image/svg+xml,PHN2ZyB4bWxuczpkYz0iaHR0cDovL3B1cmwub3JnL2RjL2VsZW1lbnRzLzEuMS8iIHhtbG5zOmNjPSJodHRwOi8vY3JlYXRpdmVjb21tb25zLm9yZy9ucyMiIHhtbG5zOnJkZj0iaHR0cDovL3d3dy53My5vcmcvMTk5OS8wMi8yMi1yZGYtc3ludGF4LW5zIyIgeG1sbnM6c3ZnPSJodHRwOi8vd3d3LnczLm9yZy8yMDAwL3N2ZyIgeG1sbnM9Imh0dHA6Ly93d3cudzMub3JnLzIwMDAvc3ZnIiB4bWxuczpzb2RpcG9kaT0iaHR0cDovL3NvZGlwb2RpLnNvdXJjZWZvcmdlLm5ldC9EVEQvc29kaXBvZGktMC5kdGQiIHhtbG5zOmlua3NjYXBlPSJodHRwOi8vd3d3Lmlua3NjYXBlLm9yZy9uYW1lc3BhY2VzL2lua3NjYXBlIiB2ZXJzaW9uPSIxLjEiIGlkPSJzdmc4NDczMCIgaW5rc2NhcGU6dmVyc2lvbj0iMC45Mi4zICgyNDA1NTQ2LCAyMDE4LTAzLTExKSIgc29kaXBvZGk6ZG9jbmFtZT0ibWljcm9zb2Z0X2Zsb3cuc3ZnIiB4PSIwcHgiIHk9IjBweCIgdmlld0JveD0iMCAwIDUwLjg1IDM4LjA2IiBzdHlsZT0iZW5hYmxlLWJhY2tncm91bmQ6bmV3IDAgMCA1MC44NSAzOC4wNjsiIHhtbDpzcGFjZT0icHJlc2VydmUiPjxtZXRhZGF0YSBpZD0ibWV0YWRhdGEzMTk4Ij48cmRmOlJERj48Y2M6V29yayByZGY6YWJvdXQ9IiI+PGRjOmZvcm1hdD5pbWFnZS9zdmcreG1sPC9kYzpmb3JtYXQ+PGRjOnR5cGUgcmRmOnJlc291cmNlPSJodHRwOi8vcHVybC5vcmcvZGMvZGNtaXR5cGUvU3RpbGxJbWFnZSIvPjxkYzp0aXRsZS8+PC9jYzpXb3JrPjwvcmRmOlJERj48L21ldGFkYXRhPjxkZWZzIGlkPSJkZWZzMzE5NiIvPiYjeGE7PGZpbHRlciBpZD0iZmlsdGVyXzIiPiYjeGE7CTxmZUdhdXNzaWFuQmx1ciBpZD0iZmVHYXVzc2lhbkJsdXI4NDcwMyIgc3RkRGV2aWF0aW9uPSIyIi8+JiN4YTs8L2ZpbHRlcj4mI3hhOzxzb2RpcG9kaTpuYW1lZHZpZXcgYm9yZGVyY29sb3I9IiM2NjY2NjYiIGJvcmRlcm9wYWNpdHk9IjEiIGZpdC1tYXJnaW4tYm90dG9tPSIwIiBmaXQtbWFyZ2luLWxlZnQ9IjAiIGZpdC1tYXJnaW4tcmlnaHQ9IjAiIGZpdC1tYXJnaW4tdG9wPSIwIiBncmlkdG9sZXJhbmNlPSIxMCIgZ3VpZGV0b2xlcmFuY2U9IjEwIiBpZD0ibmFtZWR2aWV3ODQ3MzIiIGlua3NjYXBlOmN1cnJlbnQtbGF5ZXI9InN2Zzg0NzMwIiBpbmtzY2FwZTpjeD0iMjguNzkxMTIxIiBpbmtzY2FwZTpjeT0iMTcuOTE3NDYxIiBpbmtzY2FwZTpwYWdlb3BhY2l0eT0iMCIgaW5rc2NhcGU6cGFnZXNoYWRvdz0iMiIgaW5rc2NhcGU6d2luZG93LWhlaWdodD0iMTAxNyIgaW5rc2NhcGU6d2luZG93LW1heGltaXplZD0iMSIgaW5rc2NhcGU6d2luZG93LXdpZHRoPSIxOTIwIiBpbmtzY2FwZTp3aW5kb3cteD0iLTgiIGlua3NjYXBlOndpbmRvdy15PSItOCIgaW5rc2NhcGU6em9vbT0iMTQuMjc3MzkyIiBvYmplY3R0b2xlcmFuY2U9IjEwIiBwYWdlY29sb3I9IiNmZmZmZmYiIHNob3dncmlkPSJmYWxzZSI+JiN4YTsJPC9zb2RpcG9kaTpuYW1lZHZpZXc+JiN4YTsmI3hhOzxwYXRoIGlkPSJwYXRoODQ3MTYiIGlua3NjYXBlOmNvbm5lY3Rvci1jdXJ2YXR1cmU9IjAiIHN0eWxlPSJmaWxsOiMwMDc3RkY7IiBkPSJNMi4wNSwyMi40NFY2YzAtMi4xOCwxLjc3LTMuOTUsMy45NS0zLjk1aDM4Ljg1ICBjMi4xOCwwLDMuOTUsMS43NywzLjk1LDMuOTV2MjAuOTVjLTAuMDEsMi4xOC0xLjc3LDMuOTQtMy45NSwzLjk0SDI2LjkxdjIuMDVoMTcuOTRjMy4zMSwwLDUuOTktMi42OCw2LTUuOTlWNmMwLTMuMzEtMi42OS02LTYtNkg2ICBDMi42OSwwLDAsMi42OSwwLDZ2MTYuNDNMMi4wNSwyMi40NHoiLz4mI3hhOyYjeGE7PHBhdGggaWQ9InBhdGg4NDcyNCIgaW5rc2NhcGU6Y29ubmVjdG9yLWN1cnZhdHVyZT0iMCIgc3R5bGU9ImZpbGw6IzAwNzdGRjsiIGQ9Ik0yNi45NywxOC4zMmMwLDAuOTksMC44LDEuNzksMS43OSwxLjc5aDguMzQgIGMwLjk4LTAuMDEsMS43OC0wLjgxLDEuNzgtMS43OVY5Ljk0YzAtMC45OC0wLjgtMS43OC0xLjc4LTEuNzloLTguMzRjLTAuOTksMC0xLjc5LDAuOC0xLjc5LDEuNzl2Mi43SDIzLjYgIGMtMS40MSwwLTIuNjYsMC45MS0zLjEsMi4yNWwtNS4xMywxNS40OWMtMC4wNCwwLjEyLTAuMTUsMC4yLTAuMjgsMC4ybC0zLjE4LDAuMDF2LTIuN2MwLTAuOTgtMC44LTEuNzgtMS43OC0xLjc5SDEuNzkgIEMwLjgsMjYuMSwwLDI2LjksMCwyNy44OXY4LjM4YzAsMC45OSwwLjgsMS43OSwxLjc5LDEuNzloOC4zNGMwLjk4LTAuMDEsMS43OC0wLjgxLDEuNzgtMS43OXYtMi42OWgzLjE5YzEuNDEsMCwyLjY2LTAuOTEsMy4xLTIuMjUgIGw1LjEyLTE1LjQ5YzAuMDQtMC4xMiwwLjE1LTAuMiwwLjI4LTAuMmwzLjM3LTAuMDFMMjYuOTcsMTguMzJ6IE04LjkzLDM1LjA3SDIuOTh2LTUuOThoNS45NUw4LjkzLDM1LjA3eiIvPiYjeGE7PC9zdmc+;" parent="1" vertex="1">
          <mxGeometry x="613" y="264.5000000000018" width="51" height="38" as="geometry" />
        </mxCell>
        <mxCell id="OC8hzQOqMFoO2Zi8FBlJ-8" style="edgeStyle=orthogonalEdgeStyle;rounded=0;orthogonalLoop=1;jettySize=auto;html=1;entryX=0;entryY=0.5;entryDx=0;entryDy=0;" edge="1" parent="1" source="c07P4ZYzcnsUTolsN5iu-33" target="c07P4ZYzcnsUTolsN5iu-3">
          <mxGeometry relative="1" as="geometry" />
        </mxCell>
        <mxCell id="c07P4ZYzcnsUTolsN5iu-33" value="Pipelines" style="shape=image;verticalLabelPosition=bottom;labelBackgroundColor=#ffffff;verticalAlign=top;aspect=fixed;imageAspect=0;image=data:image/svg+xml,PHN2ZyB4bWxuczpjYz0iaHR0cDovL2NyZWF0aXZlY29tbW9ucy5vcmcvbnMjIiB4bWxuczpkYz0iaHR0cDovL3B1cmwub3JnL2RjL2VsZW1lbnRzLzEuMS8iIHhtbG5zOmlua3NjYXBlPSJodHRwOi8vd3d3Lmlua3NjYXBlLm9yZy9uYW1lc3BhY2VzL2lua3NjYXBlIiB4bWxuczpyZGY9Imh0dHA6Ly93d3cudzMub3JnLzE5OTkvMDIvMjItcmRmLXN5bnRheC1ucyMiIHhtbG5zOnNvZGlwb2RpPSJodHRwOi8vc29kaXBvZGkuc291cmNlZm9yZ2UubmV0L0RURC9zb2RpcG9kaS0wLmR0ZCIgeG1sbnM6c3ZnPSJodHRwOi8vd3d3LnczLm9yZy8yMDAwL3N2ZyIgeG1sbnM9Imh0dHA6Ly93d3cudzMub3JnLzIwMDAvc3ZnIiB4bWxuczp4bGluaz0iaHR0cDovL3d3dy53My5vcmcvMTk5OS94bGluayIgdmVyc2lvbj0iMS4xIiBpZD0ic3ZnNzc5MjQiIGlua3NjYXBlOnZlcnNpb249IjAuOTIuMyAoMjQwNTU0NiwgMjAxOC0wMy0xMSkiIHNvZGlwb2RpOmRvY25hbWU9ImRhdGFfcGlwZWxpbmVzLnN2ZyIgeD0iMHB4IiB5PSIwcHgiIHZpZXdCb3g9IjAgMCA2Mi4zNyA0MC40MiIgc3R5bGU9ImVuYWJsZS1iYWNrZ3JvdW5kOm5ldyAwIDAgNjIuMzcgNDAuNDI7IiB4bWw6c3BhY2U9InByZXNlcnZlIj4mI3hhOzxzb2RpcG9kaTpuYW1lZHZpZXcgYm9yZGVyY29sb3I9IiM2NjY2NjYiIGJvcmRlcm9wYWNpdHk9IjEiIGZpdC1tYXJnaW4tYm90dG9tPSIwIiBmaXQtbWFyZ2luLWxlZnQ9IjAiIGZpdC1tYXJnaW4tcmlnaHQ9IjAiIGZpdC1tYXJnaW4tdG9wPSIwIiBncmlkdG9sZXJhbmNlPSIxMCIgZ3VpZGV0b2xlcmFuY2U9IjEwIiBpZD0ibmFtZWR2aWV3Nzc5MjYiIGlua3NjYXBlOmN1cnJlbnQtbGF5ZXI9InN2Zzc3OTI0IiBpbmtzY2FwZTpjeD0iNDUuMjI3NTg0IiBpbmtzY2FwZTpjeT0iMjAuMzQ0ODU2IiBpbmtzY2FwZTpwYWdlb3BhY2l0eT0iMCIgaW5rc2NhcGU6cGFnZXNoYWRvdz0iMiIgaW5rc2NhcGU6d2luZG93LWhlaWdodD0iMTAxNyIgaW5rc2NhcGU6d2luZG93LW1heGltaXplZD0iMSIgaW5rc2NhcGU6d2luZG93LXdpZHRoPSIxOTIwIiBpbmtzY2FwZTp3aW5kb3cteD0iLTgiIGlua3NjYXBlOndpbmRvdy15PSItOCIgaW5rc2NhcGU6em9vbT0iMTEuMzc2MzExIiBvYmplY3R0b2xlcmFuY2U9IjEwIiBwYWdlY29sb3I9IiNmZmZmZmYiIHNob3dncmlkPSJmYWxzZSI+JiN4YTsJPC9zb2RpcG9kaTpuYW1lZHZpZXc+JiN4YTs8ZyBpZD0iZzc3OTIyIj4mI3hhOwk8dGl0bGUgaWQ9InRpdGxlNzc5MDIiPlBhZ2UtMTwvdGl0bGU+JiN4YTsJPGcgaWQ9Imdyb3VwNTAwMS0xIj4mI3hhOwkJPHRpdGxlIGlkPSJ0aXRsZTc3OTA0Ij5EYXRhIFBpcGVsaW5lcy40OTQ8L3RpdGxlPiYjeGE7CQk8ZyBpZD0ic2hhcGU1MDAyLTIiIHRyYW5zZm9ybT0idHJhbnNsYXRlKDkuMjAwOTgsLTQuNTg4MDYpIj4mI3hhOwkJCTx0aXRsZSBpZD0idGl0bGU3NzkwNiI+U2hlZXQuNTAwMjwvdGl0bGU+JiN4YTsJCQk8cGF0aCBpZD0icGF0aDc3OTA4IiBpbmtzY2FwZTpjb25uZWN0b3ItY3VydmF0dXJlPSIwIiBzdHlsZT0iZmlsbDojMDA3MDhFOyIgZD0iTTAsOS4yMXYzMS4yMWg0Ny41NFY5LjIxSDB6Ii8+JiN4YTsJCTwvZz4mI3hhOwkJPGcgaWQ9InNoYXBlNTAwMy00Ij4mI3hhOwkJCTx0aXRsZSBpZD0idGl0bGU3NzkxMSI+U2hlZXQuNTAwMzwvdGl0bGU+JiN4YTsJCQk8cGF0aCBpZD0icGF0aDc3OTEzIiBpbmtzY2FwZTpjb25uZWN0b3ItY3VydmF0dXJlPSIwIiBzdHlsZT0iZmlsbDojMDA5MEI3OyIgZD0iTTAsNS44NUMwLDM0LjYsMCwzNC42LDAsMzQuNiAgICAgYzAsMy41MSwyLjM2LDUuODIsNS44OCw1LjgyYzMuMTYsMCw1Ljg4LTIuMzEsNS44OC01LjgyYzAtMjguNzUsMC0yOC43NSwwLTI4Ljc1QzExLjc2LDIuNzUsOS4wNCwwLDUuODgsMEMyLjM2LDAsMCwyLjc1LDAsNS44NSAgICAgeiIvPiYjeGE7CQk8L2c+JiN4YTsJCTxnIGlkPSJzaGFwZTUwMDQtNiIgdHJhbnNmb3JtPSJ0cmFuc2xhdGUoNTEuMTE2NikiPiYjeGE7CQkJPHRpdGxlIGlkPSJ0aXRsZTc3OTE2Ij5TaGVldC41MDA0PC90aXRsZT4mI3hhOwkJCTxwYXRoIGlkPSJwYXRoNzc5MTgiIGlua3NjYXBlOmNvbm5lY3Rvci1jdXJ2YXR1cmU9IjAiIHN0eWxlPSJmaWxsOiMwMDkwQjc7IiBkPSJNMCw1Ljg1QzAsMzQuNiwwLDM0LjYsMCwzNC42ICAgICBjMCwzLjUxLDIuNjUsNS44Miw1LjYyLDUuODJjMy4wMSwwLDUuNjMtMi4zMSw1LjYzLTUuODJjMC0yOC43NSwwLTI4Ljc1LDAtMjguNzVDMTEuMjUsMi43NSw4LjYzLDAsNS42MiwwQzIuNjUsMCwwLDIuNzUsMCw1Ljg1ICAgICB6Ii8+JiN4YTsJCTwvZz4mI3hhOwk8L2c+JiN4YTs8L2c+JiN4YTs8L3N2Zz4=;" parent="1" vertex="1">
          <mxGeometry x="740.0000000000001" y="295.5" width="62" height="40" as="geometry" />
        </mxCell>
        <mxCell id="c07P4ZYzcnsUTolsN5iu-42" style="edgeStyle=orthogonalEdgeStyle;rounded=0;orthogonalLoop=1;jettySize=auto;html=1;entryX=0;entryY=0.75;entryDx=0;entryDy=0;" parent="1" source="c07P4ZYzcnsUTolsN5iu-35" target="c07P4ZYzcnsUTolsN5iu-33" edge="1">
          <mxGeometry relative="1" as="geometry" />
        </mxCell>
        <mxCell id="c07P4ZYzcnsUTolsN5iu-35" value="Data Flow" style="shape=image;verticalLabelPosition=bottom;labelBackgroundColor=#ffffff;verticalAlign=top;aspect=fixed;imageAspect=0;image=data:image/svg+xml,PHN2ZyB4bWxuczpkYz0iaHR0cDovL3B1cmwub3JnL2RjL2VsZW1lbnRzLzEuMS8iIHhtbG5zOmNjPSJodHRwOi8vY3JlYXRpdmVjb21tb25zLm9yZy9ucyMiIHhtbG5zOnJkZj0iaHR0cDovL3d3dy53My5vcmcvMTk5OS8wMi8yMi1yZGYtc3ludGF4LW5zIyIgeG1sbnM6c3ZnPSJodHRwOi8vd3d3LnczLm9yZy8yMDAwL3N2ZyIgeG1sbnM9Imh0dHA6Ly93d3cudzMub3JnLzIwMDAvc3ZnIiB4bWxuczpzb2RpcG9kaT0iaHR0cDovL3NvZGlwb2RpLnNvdXJjZWZvcmdlLm5ldC9EVEQvc29kaXBvZGktMC5kdGQiIHhtbG5zOmlua3NjYXBlPSJodHRwOi8vd3d3Lmlua3NjYXBlLm9yZy9uYW1lc3BhY2VzL2lua3NjYXBlIiB2ZXJzaW9uPSIxLjEiIGlkPSJzdmc4NDczMCIgaW5rc2NhcGU6dmVyc2lvbj0iMC45Mi4zICgyNDA1NTQ2LCAyMDE4LTAzLTExKSIgc29kaXBvZGk6ZG9jbmFtZT0ibWljcm9zb2Z0X2Zsb3cuc3ZnIiB4PSIwcHgiIHk9IjBweCIgdmlld0JveD0iMCAwIDUwLjg1IDM4LjA2IiBzdHlsZT0iZW5hYmxlLWJhY2tncm91bmQ6bmV3IDAgMCA1MC44NSAzOC4wNjsiIHhtbDpzcGFjZT0icHJlc2VydmUiPjxtZXRhZGF0YSBpZD0ibWV0YWRhdGEzMTk4Ij48cmRmOlJERj48Y2M6V29yayByZGY6YWJvdXQ9IiI+PGRjOmZvcm1hdD5pbWFnZS9zdmcreG1sPC9kYzpmb3JtYXQ+PGRjOnR5cGUgcmRmOnJlc291cmNlPSJodHRwOi8vcHVybC5vcmcvZGMvZGNtaXR5cGUvU3RpbGxJbWFnZSIvPjxkYzp0aXRsZS8+PC9jYzpXb3JrPjwvcmRmOlJERj48L21ldGFkYXRhPjxkZWZzIGlkPSJkZWZzMzE5NiIvPiYjeGE7PGZpbHRlciBpZD0iZmlsdGVyXzIiPiYjeGE7CTxmZUdhdXNzaWFuQmx1ciBpZD0iZmVHYXVzc2lhbkJsdXI4NDcwMyIgc3RkRGV2aWF0aW9uPSIyIi8+JiN4YTs8L2ZpbHRlcj4mI3hhOzxzb2RpcG9kaTpuYW1lZHZpZXcgYm9yZGVyY29sb3I9IiM2NjY2NjYiIGJvcmRlcm9wYWNpdHk9IjEiIGZpdC1tYXJnaW4tYm90dG9tPSIwIiBmaXQtbWFyZ2luLWxlZnQ9IjAiIGZpdC1tYXJnaW4tcmlnaHQ9IjAiIGZpdC1tYXJnaW4tdG9wPSIwIiBncmlkdG9sZXJhbmNlPSIxMCIgZ3VpZGV0b2xlcmFuY2U9IjEwIiBpZD0ibmFtZWR2aWV3ODQ3MzIiIGlua3NjYXBlOmN1cnJlbnQtbGF5ZXI9InN2Zzg0NzMwIiBpbmtzY2FwZTpjeD0iMjguNzkxMTIxIiBpbmtzY2FwZTpjeT0iMTcuOTE3NDYxIiBpbmtzY2FwZTpwYWdlb3BhY2l0eT0iMCIgaW5rc2NhcGU6cGFnZXNoYWRvdz0iMiIgaW5rc2NhcGU6d2luZG93LWhlaWdodD0iMTAxNyIgaW5rc2NhcGU6d2luZG93LW1heGltaXplZD0iMSIgaW5rc2NhcGU6d2luZG93LXdpZHRoPSIxOTIwIiBpbmtzY2FwZTp3aW5kb3cteD0iLTgiIGlua3NjYXBlOndpbmRvdy15PSItOCIgaW5rc2NhcGU6em9vbT0iMTQuMjc3MzkyIiBvYmplY3R0b2xlcmFuY2U9IjEwIiBwYWdlY29sb3I9IiNmZmZmZmYiIHNob3dncmlkPSJmYWxzZSI+JiN4YTsJPC9zb2RpcG9kaTpuYW1lZHZpZXc+JiN4YTsmI3hhOzxwYXRoIGlkPSJwYXRoODQ3MTYiIGlua3NjYXBlOmNvbm5lY3Rvci1jdXJ2YXR1cmU9IjAiIHN0eWxlPSJmaWxsOiMwMDc3RkY7IiBkPSJNMi4wNSwyMi40NFY2YzAtMi4xOCwxLjc3LTMuOTUsMy45NS0zLjk1aDM4Ljg1ICBjMi4xOCwwLDMuOTUsMS43NywzLjk1LDMuOTV2MjAuOTVjLTAuMDEsMi4xOC0xLjc3LDMuOTQtMy45NSwzLjk0SDI2LjkxdjIuMDVoMTcuOTRjMy4zMSwwLDUuOTktMi42OCw2LTUuOTlWNmMwLTMuMzEtMi42OS02LTYtNkg2ICBDMi42OSwwLDAsMi42OSwwLDZ2MTYuNDNMMi4wNSwyMi40NHoiLz4mI3hhOyYjeGE7PHBhdGggaWQ9InBhdGg4NDcyNCIgaW5rc2NhcGU6Y29ubmVjdG9yLWN1cnZhdHVyZT0iMCIgc3R5bGU9ImZpbGw6IzAwNzdGRjsiIGQ9Ik0yNi45NywxOC4zMmMwLDAuOTksMC44LDEuNzksMS43OSwxLjc5aDguMzQgIGMwLjk4LTAuMDEsMS43OC0wLjgxLDEuNzgtMS43OVY5Ljk0YzAtMC45OC0wLjgtMS43OC0xLjc4LTEuNzloLTguMzRjLTAuOTksMC0xLjc5LDAuOC0xLjc5LDEuNzl2Mi43SDIzLjYgIGMtMS40MSwwLTIuNjYsMC45MS0zLjEsMi4yNWwtNS4xMywxNS40OWMtMC4wNCwwLjEyLTAuMTUsMC4yLTAuMjgsMC4ybC0zLjE4LDAuMDF2LTIuN2MwLTAuOTgtMC44LTEuNzgtMS43OC0xLjc5SDEuNzkgIEMwLjgsMjYuMSwwLDI2LjksMCwyNy44OXY4LjM4YzAsMC45OSwwLjgsMS43OSwxLjc5LDEuNzloOC4zNGMwLjk4LTAuMDEsMS43OC0wLjgxLDEuNzgtMS43OXYtMi42OWgzLjE5YzEuNDEsMCwyLjY2LTAuOTEsMy4xLTIuMjUgIGw1LjEyLTE1LjQ5YzAuMDQtMC4xMiwwLjE1LTAuMiwwLjI4LTAuMmwzLjM3LTAuMDFMMjYuOTcsMTguMzJ6IE04LjkzLDM1LjA3SDIuOTh2LTUuOThoNS45NUw4LjkzLDM1LjA3eiIvPiYjeGE7PC9zdmc+;" parent="1" vertex="1">
          <mxGeometry x="613" y="340.0000000000018" width="51" height="38" as="geometry" />
        </mxCell>
        <mxCell id="c07P4ZYzcnsUTolsN5iu-40" style="edgeStyle=orthogonalEdgeStyle;rounded=0;orthogonalLoop=1;jettySize=auto;html=1;entryX=0;entryY=0.5;entryDx=0;entryDy=0;" parent="1" source="c07P4ZYzcnsUTolsN5iu-39" target="c07P4ZYzcnsUTolsN5iu-22" edge="1">
          <mxGeometry relative="1" as="geometry" />
        </mxCell>
        <mxCell id="c07P4ZYzcnsUTolsN5iu-41" style="edgeStyle=orthogonalEdgeStyle;rounded=0;orthogonalLoop=1;jettySize=auto;html=1;entryX=0;entryY=0.5;entryDx=0;entryDy=0;" parent="1" source="c07P4ZYzcnsUTolsN5iu-39" target="c07P4ZYzcnsUTolsN5iu-35" edge="1">
          <mxGeometry relative="1" as="geometry" />
        </mxCell>
        <mxCell id="c07P4ZYzcnsUTolsN5iu-39" value="Datasets" style="shape=image;verticalLabelPosition=bottom;labelBackgroundColor=#ffffff;verticalAlign=top;aspect=fixed;imageAspect=0;image=data:image/svg+xml,PHN2ZyB4bWxuczpjYz0iaHR0cDovL2NyZWF0aXZlY29tbW9ucy5vcmcvbnMjIiB4bWxuczpkYz0iaHR0cDovL3B1cmwub3JnL2RjL2VsZW1lbnRzLzEuMS8iIHhtbG5zOmlua3NjYXBlPSJodHRwOi8vd3d3Lmlua3NjYXBlLm9yZy9uYW1lc3BhY2VzL2lua3NjYXBlIiB4bWxuczpyZGY9Imh0dHA6Ly93d3cudzMub3JnLzE5OTkvMDIvMjItcmRmLXN5bnRheC1ucyMiIHhtbG5zOnNvZGlwb2RpPSJodHRwOi8vc29kaXBvZGkuc291cmNlZm9yZ2UubmV0L0RURC9zb2RpcG9kaS0wLmR0ZCIgeG1sbnM6c3ZnPSJodHRwOi8vd3d3LnczLm9yZy8yMDAwL3N2ZyIgeG1sbnM9Imh0dHA6Ly93d3cudzMub3JnLzIwMDAvc3ZnIiB4bWxuczp4bGluaz0iaHR0cDovL3d3dy53My5vcmcvMTk5OS94bGluayIgdmVyc2lvbj0iMS4xIiBpZD0ic3ZnNzY2MjIiIGlua3NjYXBlOnZlcnNpb249IjAuOTIuMyAoMjQwNTU0NiwgMjAxOC0wMy0xMSkiIHNvZGlwb2RpOmRvY25hbWU9ImRhdGFfY29ubmVjdGlvbnMuc3ZnIiB4PSIwcHgiIHk9IjBweCIgdmlld0JveD0iMCAwIDE4LjE2IDI0LjA0IiBzdHlsZT0iZW5hYmxlLWJhY2tncm91bmQ6bmV3IDAgMCAxOC4xNiAyNC4wNDsiIHhtbDpzcGFjZT0icHJlc2VydmUiPiYjeGE7PHNvZGlwb2RpOm5hbWVkdmlldyBib3JkZXJjb2xvcj0iIzY2NjY2NiIgYm9yZGVyb3BhY2l0eT0iMSIgZml0LW1hcmdpbi1ib3R0b209IjAiIGZpdC1tYXJnaW4tbGVmdD0iMCIgZml0LW1hcmdpbi1yaWdodD0iMCIgZml0LW1hcmdpbi10b3A9IjAiIGdyaWR0b2xlcmFuY2U9IjEwIiBndWlkZXRvbGVyYW5jZT0iMTAiIGlkPSJuYW1lZHZpZXc3NjYyNCIgaW5rc2NhcGU6Y3VycmVudC1sYXllcj0ic3ZnNzY2MjIiIGlua3NjYXBlOmN4PSIxMy42MDI3NzEiIGlua3NjYXBlOmN5PSIxMi40OTI5OTMiIGlua3NjYXBlOnBhZ2VvcGFjaXR5PSIwIiBpbmtzY2FwZTpwYWdlc2hhZG93PSIyIiBpbmtzY2FwZTp3aW5kb3ctaGVpZ2h0PSIxMDE3IiBpbmtzY2FwZTp3aW5kb3ctbWF4aW1pemVkPSIxIiBpbmtzY2FwZTp3aW5kb3ctd2lkdGg9IjE5MjAiIGlua3NjYXBlOndpbmRvdy14PSItOCIgaW5rc2NhcGU6d2luZG93LXk9Ii04IiBpbmtzY2FwZTp6b29tPSIxOS4xMjI1MTEiIG9iamVjdHRvbGVyYW5jZT0iMTAiIHBhZ2Vjb2xvcj0iI2ZmZmZmZiIgc2hvd2dyaWQ9ImZhbHNlIj4mI3hhOwk8L3NvZGlwb2RpOm5hbWVkdmlldz4mI3hhOzxnIGlkPSJnNzY2MjAiIHRyYW5zZm9ybT0idHJhbnNsYXRlKDAsLTAuMDAxODYzOCkiPiYjeGE7CTx0aXRsZSBpZD0idGl0bGU3NjU3MCI+UGFnZS0xPC90aXRsZT4mI3hhOwk8ZyBpZD0iZ3JvdXA0NTY5LTEiPiYjeGE7CQk8dGl0bGUgaWQ9InRpdGxlNzY1NzIiPkRhdGEgQ29ubmVjdGlvbnM8L3RpdGxlPiYjeGE7CQk8ZyBpZD0ic2hhcGU0NTcwLTIiPiYjeGE7CQkJPHRpdGxlIGlkPSJ0aXRsZTc2NTc0Ij5TaGVldC40NTcwPC90aXRsZT4mI3hhOwkJCTxwYXRoIGlkPSJwYXRoNzY1NzYiIGlua3NjYXBlOmNvbm5lY3Rvci1jdXJ2YXR1cmU9IjAiIHN0eWxlPSJmaWxsOiMwMEJDRjI7IiBkPSJNMCwzLjMyYzAsMTcuNDUsMCwxNy40NSwwLDE3LjQ1ICAgICBjMCwxLjgsNC4xMywzLjI3LDkuMTgsMy4yN2MwLTIwLjcyLDAtMjAuNzIsMC0yMC43MkwwLDMuMzJ6Ii8+JiN4YTsJCTwvZz4mI3hhOwkJPGcgaWQ9InNoYXBlNDU3MS00IiB0cmFuc2Zvcm09InRyYW5zbGF0ZSg4Ljk4NDU3KSI+JiN4YTsJCQk8dGl0bGUgaWQ9InRpdGxlNzY1NzkiPlNoZWV0LjQ1NzE8L3RpdGxlPiYjeGE7CQkJPHBhdGggaWQ9InBhdGg3NjU4MSIgaW5rc2NhcGU6Y29ubmVjdG9yLWN1cnZhdHVyZT0iMCIgc3R5bGU9ImZpbGw6IzI5QzdGNDsiIGQ9Ik0wLDI0LjA0YzAuMTIsMCwwLjEyLDAsMC4xMiwwICAgICBjNS4wMSwwLDkuMDYtMS40Nyw5LjA2LTMuMjdjMC0xNy40NSwwLTE3LjQ1LDAtMTcuNDVDMCwzLjMyLDAsMy4zMiwwLDMuMzJWMjQuMDR6Ii8+JiN4YTsJCTwvZz4mI3hhOwkJPGcgaWQ9InNoYXBlNDU3Mi02IiB0cmFuc2Zvcm09InRyYW5zbGF0ZSgwLC0xNy4zOTgyKSI+JiN4YTsJCQk8dGl0bGUgaWQ9InRpdGxlNzY1ODQiPlNoZWV0LjQ1NzI8L3RpdGxlPiYjeGE7CQkJPHBhdGggaWQ9InBhdGg3NjU4NiIgaW5rc2NhcGU6Y29ubmVjdG9yLWN1cnZhdHVyZT0iMCIgc3R5bGU9ImZpbGw6I0ZGRkZGRjsiIGQ9Ik0wLDIwLjcyYzAtMS44Myw0LjA4LTMuMzIsOS4wOC0zLjMyICAgICBjNS4wMiwwLDkuMDgsMS40OSw5LjA4LDMuMzJjMCwxLjg1LTQuMDYsMy4zMi05LjA4LDMuMzJDNC4wOCwyNC4wNCwwLDIyLjU3LDAsMjAuNzJ6Ii8+JiN4YTsJCTwvZz4mI3hhOwkJPGcgaWQ9InNoYXBlNDU3My04IiB0cmFuc2Zvcm09InRyYW5zbGF0ZSgxLjk1MzE3LC0xOC43NjY2KSI+JiN4YTsJCQk8dGl0bGUgaWQ9InRpdGxlNzY1ODkiPlNoZWV0LjQ1NzM8L3RpdGxlPiYjeGE7CQkJPHBhdGggaWQ9InBhdGg3NjU5MSIgaW5rc2NhcGU6Y29ubmVjdG9yLWN1cnZhdHVyZT0iMCIgc3R5bGU9ImZpbGw6Izg1QjM1MTsiIGQ9Ik0wLDIxLjg5YzAtMS4xOCwzLjItMi4xNSw3LjEzLTIuMTUgICAgIGMzLjk0LDAsNy4xMywwLjk3LDcuMTMsMi4xNWMwLDEuMi0zLjE5LDIuMTUtNy4xMywyLjE1QzMuMiwyNC4wNCwwLDIzLjA5LDAsMjEuODl6Ii8+JiN4YTsJCTwvZz4mI3hhOwkJPGcgaWQ9InNoYXBlNDU3NC0xMCIgdHJhbnNmb3JtPSJ0cmFuc2xhdGUoMS45NTMxNywtMTkuNTQ4NikiPiYjeGE7CQkJPHRpdGxlIGlkPSJ0aXRsZTc2NTk0Ij5TaGVldC40NTc0PC90aXRsZT4mI3hhOwkJCTxwYXRoIGlkPSJwYXRoNzY1OTYiIGlua3NjYXBlOmNvbm5lY3Rvci1jdXJ2YXR1cmU9IjAiIHN0eWxlPSJmaWxsOiNCQUM4NEE7IiBkPSJNMTIuNzYsMjQuMDRjMC45Mi0wLjM5LDEuNS0wLjgxLDEuNS0xLjMxICAgICBjMC0xLjIzLTMuMi0yLjItNy4xMy0yLjJTMCwyMS41LDAsMjIuNzNjMCwwLjUsMC41OSwwLjkyLDEuNTEsMS4zMWMxLjMxLTAuNSwzLjMxLTAuODUsNS42Mi0wLjg1ICAgICBDOS40MSwyMy4xOSwxMS40NSwyMy41NCwxMi43NiwyNC4wNHoiLz4mI3hhOwkJPC9nPiYjeGE7CQk8ZyBpZD0ic2hhcGU0NTc1LTEyIiB0cmFuc2Zvcm09InRyYW5zbGF0ZSgyLjUzOTEyLC02LjA2MDA2KSI+JiN4YTsJCQk8dGl0bGUgaWQ9InRpdGxlNzY1OTkiPlNoZWV0LjQ1NzU8L3RpdGxlPiYjeGE7CQkJPHBhdGggaWQ9InBhdGg3NjYwMSIgaW5rc2NhcGU6Y29ubmVjdG9yLWN1cnZhdHVyZT0iMCIgc3R5bGU9ImZpbGw6I0ZGRkZGRjsiIGQ9Ik0xMi4zNSwyMy40MmMtMC41LDAuNDMtMS4xMiwwLjYyLTEuOTcsMC42MiAgICAgYy0yLjgyLDAtMi44MiwwLTIuODIsMGMwLTcuNDIsMC03LjQyLDAtNy40MmMyLjY3LDAsMi42NywwLDIuNjcsMGMwLjg1LDAsMS40NiwwLjEyLDEuOTMsMC40N2MwLjQzLDAuMjcsMC42MiwwLjcsMC42MiwxLjI1ICAgICBjMCwwLjQzLTAuMTYsMC43OC0wLjQ2LDEuMTRjLTAuMjcsMC4yMy0wLjU5LDAuNDItMC45NywwLjU1bDAsMGMwLjU0LDAuMDcsMC45NywwLjI2LDEuMjcsMC42MmMwLjMyLDAuMzIsMC40NywwLjcxLDAuNDcsMS4xNyAgICAgQzEzLjA5LDIyLjQ4LDEyLjgyLDIzLjAzLDEyLjM1LDIzLjQyeiBNNS40NywyMi45OWMtMC43LDAuNzEtMS42NywxLjA1LTIuODMsMS4wNWMtMi42NCwwLTIuNjQsMC0yLjY0LDBjMC03LjQyLDAtNy40MiwwLTcuNDIgICAgIGMyLjY0LDAsMi42NCwwLDIuNjQsMGMyLjYsMCwzLjksMS4xNywzLjksMy42QzYuNTQsMjEuMzksNi4yLDIyLjI5LDUuNDcsMjIuOTl6Ii8+JiN4YTsJCTwvZz4mI3hhOwkJPGcgaWQ9InNoYXBlNDU3Ni0xNCIgdHJhbnNmb3JtPSJ0cmFuc2xhdGUoNC4xMDE2NSwtNy40Mjg0NikiPiYjeGE7CQkJPHRpdGxlIGlkPSJ0aXRsZTc2NjA0Ij5TaGVldC40NTc2PC90aXRsZT4mI3hhOwkJCTxwYXRoIGlkPSJwYXRoNzY2MDYiIGlua3NjYXBlOmNvbm5lY3Rvci1jdXJ2YXR1cmU9IjAiIHN0eWxlPSJmaWxsOiMwMEJDRjI7IiBkPSJNMC44NywxOS4zNWMtMC44NywwLTAuODcsMC0wLjg3LDAgICAgIGMwLDQuNjksMCw0LjY5LDAsNC42OWMwLjg3LDAsMC44NywwLDAuODcsMGMwLjc4LDAsMS4zOS0wLjIzLDEuOC0wLjY0YzAuNDYtMC40MywwLjY1LTEuMDIsMC42NS0xLjc1YzAtMC43LTAuMTktMS4yNS0wLjYxLTEuNjcgICAgIEMyLjI2LDE5LjYsMS42NSwxOS4zNSwwLjg3LDE5LjM1eiIvPiYjeGE7CQk8L2c+JiN4YTsJCTxnIGlkPSJzaGFwZTQ1NzctMTYiIHRyYW5zZm9ybT0idHJhbnNsYXRlKDExLjcxOSwtMTAuMzYwNykiPiYjeGE7CQkJPHRpdGxlIGlkPSJ0aXRsZTc2NjA5Ij5TaGVldC40NTc3PC90aXRsZT4mI3hhOwkJCTxwYXRoIGlkPSJwYXRoNzY2MTEiIGlua3NjYXBlOmNvbm5lY3Rvci1jdXJ2YXR1cmU9IjAiIHN0eWxlPSJmaWxsOiMyOUM3RjQ7IiBkPSJNMS42MiwyMy44MWMwLjIxLTAuMTksMC4zMy0wLjQzLDAuMzMtMC42OSAgICAgYzAtMC41NS0wLjQxLTAuODMtMS4yOC0wLjgzYy0wLjY3LDAtMC42NywwLTAuNjcsMGMwLDEuNzUsMCwxLjc1LDAsMS43NWMwLjc5LDAsMC43OSwwLDAuNzksMEMxLjEyLDI0LjA0LDEuNDIsMjMuOTcsMS42MiwyMy44MSAgICAgeiIvPiYjeGE7CQk8L2c+JiN4YTsJCTxnIGlkPSJzaGFwZTQ1NzgtMTgiIHRyYW5zZm9ybT0idHJhbnNsYXRlKDExLjcxOSwtNy4yMzI5NykiPiYjeGE7CQkJPHRpdGxlIGlkPSJ0aXRsZTc2NjE0Ij5TaGVldC40NTc4PC90aXRsZT4mI3hhOwkJCTxwYXRoIGlkPSJwYXRoNzY2MTYiIGlua3NjYXBlOmNvbm5lY3Rvci1jdXJ2YXR1cmU9IjAiIHN0eWxlPSJmaWxsOiMyOUM3RjQ7IiBkPSJNMS44MSwyMi4zM2MtMC4yLTAuMTUtMC41LTAuMjQtMC44OC0wLjI0ICAgICBjLTAuOTMsMC0wLjkzLDAtMC45MywwYzAsMS45NSwwLDEuOTUsMCwxLjk1YzAuOTMsMCwwLjkzLDAsMC45MywwYzAuMzgsMCwwLjY4LTAuMDcsMC44OC0wLjI2YzAuMjMtMC4yLDAuMzQtMC40MywwLjM0LTAuNzUgICAgIEMyLjE1LDIyLjc2LDIuMDQsMjIuNTMsMS44MSwyMi4zM3oiLz4mI3hhOwkJPC9nPiYjeGE7CTwvZz4mI3hhOzwvZz4mI3hhOzwvc3ZnPg==;" parent="1" vertex="1">
          <mxGeometry x="490" y="291" width="42" height="55" as="geometry" />
        </mxCell>
        <mxCell id="c07P4ZYzcnsUTolsN5iu-46" value="AZURE DATA FACTORY" style="swimlane;" parent="1" vertex="1">
          <mxGeometry x="470" y="100" width="400" height="330" as="geometry" />
        </mxCell>
        <mxCell id="c07P4ZYzcnsUTolsN5iu-47" value="AZURE" style="swimlane;" parent="c07P4ZYzcnsUTolsN5iu-46" vertex="1">
          <mxGeometry x="-250" y="-50" width="930" height="490" as="geometry" />
        </mxCell>
        <mxCell id="AcxdMaKK0mU5kZiv2lnr-9" value="Azure Blob&lt;br&gt;Storage&lt;br&gt;" style="aspect=fixed;html=1;perimeter=none;align=center;shadow=0;dashed=0;image;fontSize=12;image=img/lib/mscae/BlobBlock.svg;" parent="c07P4ZYzcnsUTolsN5iu-47" vertex="1">
          <mxGeometry x="150" y="245.5" width="62" height="53" as="geometry" />
        </mxCell>
        <mxCell id="c07P4ZYzcnsUTolsN5iu-24" value="Storage Accounts" style="shape=image;verticalLabelPosition=bottom;verticalAlign=top;imageAspect=0;aspect=fixed;image=data:image/svg+xml,PHN2ZyB4bWxuczpkYz0iaHR0cDovL3B1cmwub3JnL2RjL2VsZW1lbnRzLzEuMS8iIHhtbG5zOmNjPSJodHRwOi8vY3JlYXRpdmVjb21tb25zLm9yZy9ucyMiIHhtbG5zOnJkZj0iaHR0cDovL3d3dy53My5vcmcvMTk5OS8wMi8yMi1yZGYtc3ludGF4LW5zIyIgeG1sbnM6c3ZnPSJodHRwOi8vd3d3LnczLm9yZy8yMDAwL3N2ZyIgeG1sbnM9Imh0dHA6Ly93d3cudzMub3JnLzIwMDAvc3ZnIiB4bWxuczpzb2RpcG9kaT0iaHR0cDovL3NvZGlwb2RpLnNvdXJjZWZvcmdlLm5ldC9EVEQvc29kaXBvZGktMC5kdGQiIHhtbG5zOmlua3NjYXBlPSJodHRwOi8vd3d3Lmlua3NjYXBlLm9yZy9uYW1lc3BhY2VzL2lua3NjYXBlIiB2ZXJzaW9uPSIxLjEiIGlkPSJMYXllcl8xIiB4PSIwcHgiIHk9IjBweCIgd2lkdGg9IjUwIiBoZWlnaHQ9IjQyLjkwMDAwMiIgdmlld0JveD0iMCAwIDUwIDQyLjkwMDAwMiIgZW5hYmxlLWJhY2tncm91bmQ9Im5ldyAwIDAgNTAgNTAiIHhtbDpzcGFjZT0icHJlc2VydmUiIHNvZGlwb2RpOmRvY25hbWU9InN0b3JhZ2VfYWNjb3VudHNfY2xhc3NpYy5zdmciIGlua3NjYXBlOnZlcnNpb249IjAuOTIuMyAoMjQwNTU0NiwgMjAxOC0wMy0xMSkiPjxtZXRhZGF0YSBpZD0ibWV0YWRhdGExMDgwOSI+PHJkZjpSREY+PGNjOldvcmsgcmRmOmFib3V0PSIiPjxkYzpmb3JtYXQ+aW1hZ2Uvc3ZnK3htbDwvZGM6Zm9ybWF0PjxkYzp0eXBlIHJkZjpyZXNvdXJjZT0iaHR0cDovL3B1cmwub3JnL2RjL2RjbWl0eXBlL1N0aWxsSW1hZ2UiLz48ZGM6dGl0bGUvPjwvY2M6V29yaz48L3JkZjpSREY+PC9tZXRhZGF0YT48ZGVmcyBpZD0iZGVmczEwODA3Ii8+PHNvZGlwb2RpOm5hbWVkdmlldyBwYWdlY29sb3I9IiNmZmZmZmYiIGJvcmRlcmNvbG9yPSIjNjY2NjY2IiBib3JkZXJvcGFjaXR5PSIxIiBvYmplY3R0b2xlcmFuY2U9IjEwIiBncmlkdG9sZXJhbmNlPSIxMCIgZ3VpZGV0b2xlcmFuY2U9IjEwIiBpbmtzY2FwZTpwYWdlb3BhY2l0eT0iMCIgaW5rc2NhcGU6cGFnZXNoYWRvdz0iMiIgaW5rc2NhcGU6d2luZG93LXdpZHRoPSIxOTIwIiBpbmtzY2FwZTp3aW5kb3ctaGVpZ2h0PSIxMDE3IiBpZD0ibmFtZWR2aWV3MTA4MDUiIHNob3dncmlkPSJmYWxzZSIgZml0LW1hcmdpbi10b3A9IjAiIGZpdC1tYXJnaW4tbGVmdD0iMCIgZml0LW1hcmdpbi1yaWdodD0iMCIgZml0LW1hcmdpbi1ib3R0b209IjAiIGlua3NjYXBlOnpvb209IjE3IiBpbmtzY2FwZTpjeD0iMjUiIGlua3NjYXBlOmN5PSIyMiIgaW5rc2NhcGU6d2luZG93LXg9Ii04IiBpbmtzY2FwZTp3aW5kb3cteT0iLTgiIGlua3NjYXBlOndpbmRvdy1tYXhpbWl6ZWQ9IjEiIGlua3NjYXBlOmN1cnJlbnQtbGF5ZXI9IkxheWVyXzEiLz4mI3hhOzxwYXRoIGQ9Im0gMCw0MSBjIDAsMSAwLjgsMS45IDEuOCwxLjkgaCA0Ni4zIGMgMSwwIDEuOSwtMC44IDEuOSwtMS45IFYgNy45IEggMCBaIiBpZD0icGF0aDEwNzk0IiBpbmtzY2FwZTpjb25uZWN0b3ItY3VydmF0dXJlPSIwIiBzdHlsZT0iZmlsbDojNTliNGQ5Ii8+JiN4YTs8cGF0aCBkPSJNIDQ4LjEsMCBIIDEuOCBDIDAuOCwwIDAsMC45IDAsMS45IHYgNiBoIDUwIHYgLTYgYyAwLC0xIC0wLjgsLTEuNiAtMS45LC0xLjYiIGlkPSJwYXRoMTA3OTYiIGlua3NjYXBlOmNvbm5lY3Rvci1jdXJ2YXR1cmU9IjAiIHN0eWxlPSJmaWxsOiMwMDcyYzYiLz4mI3hhOzxyZWN0IHg9IjQiIHk9IjIxLjQiIHdpZHRoPSI0MiIgaGVpZ2h0PSI3IiBpZD0icmVjdDEwNzk4IiBzdHlsZT0iZmlsbDojMDA3MmM2Ii8+JiN4YTs8cmVjdCB4PSI0IiB5PSIxMC45IiB3aWR0aD0iNDIiIGhlaWdodD0iNyIgaWQ9InJlY3QxMDgwMCIgc3R5bGU9ImZpbGw6I2ZmZmZmZiIvPiYjeGE7PHJlY3QgeD0iNCIgeT0iMzEuOSIgd2lkdGg9IjQyIiBoZWlnaHQ9IjciIGlkPSJyZWN0MTA4MDIiIHN0eWxlPSJmaWxsOiMwMDcyYzYiLz4mI3hhOzwvc3ZnPg==" parent="c07P4ZYzcnsUTolsN5iu-47" vertex="1">
          <mxGeometry x="30" y="252.5" width="50" height="43" as="geometry" />
        </mxCell>
        <mxCell id="c07P4ZYzcnsUTolsN5iu-25" style="edgeStyle=orthogonalEdgeStyle;rounded=0;orthogonalLoop=1;jettySize=auto;html=1;entryX=-0.032;entryY=0.547;entryDx=0;entryDy=0;entryPerimeter=0;" parent="c07P4ZYzcnsUTolsN5iu-47" source="c07P4ZYzcnsUTolsN5iu-24" target="AcxdMaKK0mU5kZiv2lnr-9" edge="1">
          <mxGeometry relative="1" as="geometry" />
        </mxCell>
        <mxCell id="OC8hzQOqMFoO2Zi8FBlJ-6" value="" style="edgeStyle=orthogonalEdgeStyle;rounded=0;orthogonalLoop=1;jettySize=auto;html=1;" edge="1" parent="c07P4ZYzcnsUTolsN5iu-47" source="c07P4ZYzcnsUTolsN5iu-3" target="c07P4ZYzcnsUTolsN5iu-23">
          <mxGeometry relative="1" as="geometry" />
        </mxCell>
        <mxCell id="OC8hzQOqMFoO2Zi8FBlJ-12" style="edgeStyle=orthogonalEdgeStyle;rounded=0;orthogonalLoop=1;jettySize=auto;html=1;" edge="1" parent="c07P4ZYzcnsUTolsN5iu-47" source="c07P4ZYzcnsUTolsN5iu-3" target="OC8hzQOqMFoO2Zi8FBlJ-2">
          <mxGeometry relative="1" as="geometry" />
        </mxCell>
        <mxCell id="c07P4ZYzcnsUTolsN5iu-3" value="Database&#xa;MPV3ccoe" style="shape=image;verticalLabelPosition=bottom;labelBackgroundColor=#ffffff;verticalAlign=top;aspect=fixed;imageAspect=0;image=data:image/svg+xml,PHN2ZyB4bWxuczpkYz0iaHR0cDovL3B1cmwub3JnL2RjL2VsZW1lbnRzLzEuMS8iIHhtbG5zOmNjPSJodHRwOi8vY3JlYXRpdmVjb21tb25zLm9yZy9ucyMiIHhtbG5zOnJkZj0iaHR0cDovL3d3dy53My5vcmcvMTk5OS8wMi8yMi1yZGYtc3ludGF4LW5zIyIgeG1sbnM6c3ZnPSJodHRwOi8vd3d3LnczLm9yZy8yMDAwL3N2ZyIgeG1sbnM9Imh0dHA6Ly93d3cudzMub3JnLzIwMDAvc3ZnIiB4bWxuczpzb2RpcG9kaT0iaHR0cDovL3NvZGlwb2RpLnNvdXJjZWZvcmdlLm5ldC9EVEQvc29kaXBvZGktMC5kdGQiIHhtbG5zOmlua3NjYXBlPSJodHRwOi8vd3d3Lmlua3NjYXBlLm9yZy9uYW1lc3BhY2VzL2lua3NjYXBlIiB2ZXJzaW9uPSIxLjEiIGlkPSJzdmcxMDQ1NzIiIGlua3NjYXBlOnZlcnNpb249IjAuOTIuMyAoMjQwNTU0NiwgMjAxOC0wMy0xMSkiIHNvZGlwb2RpOmRvY25hbWU9InNxbC5zdmciIHg9IjBweCIgeT0iMHB4IiB2aWV3Qm94PSIwIDAgNDYuMDMgNjEuMDIiIHhtbDpzcGFjZT0icHJlc2VydmUiIHdpZHRoPSI0Ni4wMjk5OTkiIGhlaWdodD0iNjEuMDIiPjxtZXRhZGF0YSBpZD0ibWV0YWRhdGExMDQ4Ij48cmRmOlJERj48Y2M6V29yayByZGY6YWJvdXQ9IiI+PGRjOmZvcm1hdD5pbWFnZS9zdmcreG1sPC9kYzpmb3JtYXQ+PGRjOnR5cGUgcmRmOnJlc291cmNlPSJodHRwOi8vcHVybC5vcmcvZGMvZGNtaXR5cGUvU3RpbGxJbWFnZSIvPjxkYzp0aXRsZS8+PC9jYzpXb3JrPjwvcmRmOlJERj48L21ldGFkYXRhPjxkZWZzIGlkPSJkZWZzMTA0NiI+JiN4YTsJJiN4YTsmI3hhOwkmI3hhOyYjeGE7CSYjeGE7JiN4YTsJJiN4YTsmI3hhOwkmI3hhOyYjeGE7CSYjeGE7JiN4YTsJJiN4YTsmI3hhOwkmI3hhOyYjeGE7CSYjeGE7JiN4YTsJCSYjeGE7CSYjeGE7CQkmI3hhOwkmI3hhOwkJJiN4YTsJJiN4YTsJCSYjeGE7CSYjeGE7CQkmI3hhOwkmI3hhOwkJJiN4YTsJJiN4YTsJCSYjeGE7CSYjeGE7CQkmI3hhOwk8L2RlZnM+JiN4YTs8ZmlsdGVyIGlkPSJmaWx0ZXJfMiI+JiN4YTsJPGZlR2F1c3NpYW5CbHVyIGlkPSJmZUdhdXNzaWFuQmx1cjEwNDQ4OSIgc3RkRGV2aWF0aW9uPSIyIi8+JiN4YTs8L2ZpbHRlcj4mI3hhOzxzb2RpcG9kaTpuYW1lZHZpZXcgYm9yZGVyY29sb3I9IiM2NjY2NjYiIGJvcmRlcm9wYWNpdHk9IjEiIGZpdC1tYXJnaW4tYm90dG9tPSIwIiBmaXQtbWFyZ2luLWxlZnQ9IjAiIGZpdC1tYXJnaW4tcmlnaHQ9IjAiIGZpdC1tYXJnaW4tdG9wPSIwIiBncmlkdG9sZXJhbmNlPSIxMCIgZ3VpZGV0b2xlcmFuY2U9IjEwIiBpZD0ibmFtZWR2aWV3MTA0NTc0IiBpbmtzY2FwZTpjdXJyZW50LWxheWVyPSJzdmcxMDQ1NzIiIGlua3NjYXBlOmN4PSIwLjI3NDc3MzkyIiBpbmtzY2FwZTpjeT0iMjcuOTI1ODA5IiBpbmtzY2FwZTpwYWdlb3BhY2l0eT0iMCIgaW5rc2NhcGU6cGFnZXNoYWRvdz0iMiIgaW5rc2NhcGU6d2luZG93LWhlaWdodD0iMTAxNyIgaW5rc2NhcGU6d2luZG93LW1heGltaXplZD0iMSIgaW5rc2NhcGU6d2luZG93LXdpZHRoPSIxOTIwIiBpbmtzY2FwZTp3aW5kb3cteD0iLTgiIGlua3NjYXBlOndpbmRvdy15PSItOCIgaW5rc2NhcGU6em9vbT0iNy42MDUyNjMyIiBvYmplY3R0b2xlcmFuY2U9IjEwIiBwYWdlY29sb3I9IiNmZmZmZmYiIHNob3dncmlkPSJmYWxzZSI+JiN4YTsJPC9zb2RpcG9kaTpuYW1lZHZpZXc+JiN4YTsmI3hhOzxwYXRoIGlkPSJwYXRoMTA0NTAyIiBpbmtzY2FwZTpjb25uZWN0b3ItY3VydmF0dXJlPSIwIiBzdHlsZT0iZmlsbDojMDA3MmM2IiBkPSJtIDAsOC4zNCB2IDQ0LjM0IGMgMCw0LjYxIDEwLjMxLDguMzQgMjMuMDIsOC4zNCBWIDguMzQgWiIvPiYjeGE7JiN4YTs8cGF0aCBpZD0icGF0aDEwNDUxMCIgaW5rc2NhcGU6Y29ubmVjdG9yLWN1cnZhdHVyZT0iMCIgc3R5bGU9ImZpbGw6IzAwNzJjNiIgZD0ibSAyMi43LDYxLjAyIGggMC4zMiBjIDEyLjcxLDAgMjMuMDEsLTMuNzMgMjMuMDEsLTguMzQgViA4LjM0IEggMjIuNyBaIi8+JiN4YTsmI3hhOzxwYXRoIGlkPSJwYXRoMTA0NTE4IiBpbmtzY2FwZTpjb25uZWN0b3ItY3VydmF0dXJlPSIwIiBzdHlsZT0iZmlsbDojZmZmZmZmO2ZpbGwtb3BhY2l0eTowLjE1IiBkPSJtIDIyLjcsNjEuMDIgaCAwLjMyIGMgMTIuNzEsMCAyMy4wMSwtMy43MyAyMy4wMSwtOC4zNCBWIDguMzQgSCAyMi43IFoiLz4mI3hhOyYjeGE7PHBhdGggaWQ9InBhdGgxMDQ1MjYiIGlua3NjYXBlOmNvbm5lY3Rvci1jdXJ2YXR1cmU9IjAiIHN0eWxlPSJmaWxsOiNmZmZmZmYiIGQ9Im0gNDYuMDMsOC4zMyBjIDAsNC42MSAtMTAuMyw4LjM0IC0yMy4wMSw4LjM0IEMgMTAuMzEsMTYuNjcgMCwxMi45NCAwLDguMzMgMCwzLjczIDEwLjMxLDAgMjMuMDIsMCAzNS43MywwIDQ2LjAzLDMuNzMgNDYuMDMsOC4zMyBaIi8+JiN4YTsmI3hhOzxwYXRoIGlkPSJwYXRoMTA0NTM0IiBpbmtzY2FwZTpjb25uZWN0b3ItY3VydmF0dXJlPSIwIiBzdHlsZT0iZmlsbDojN2ZiYTAwIiBkPSJtIDQxLjMyLDcuODUgYyAwLDMuMDQgLTguMTksNS41IC0xOC4zMSw1LjUgLTEwLjExLDAgLTE4LjMxLC0yLjQ2IC0xOC4zMSwtNS41IDAsLTMuMDQgOC4yLC01LjUgMTguMzEsLTUuNSAxMC4xMiwwIDE4LjMxLDIuNDYgMTguMzEsNS41IHoiLz4mI3hhOyYjeGE7PHBhdGggaWQ9InBhdGgxMDQ1NDIiIGlua3NjYXBlOmNvbm5lY3Rvci1jdXJ2YXR1cmU9IjAiIHN0eWxlPSJmaWxsOiNiOGQ0MzIiIGQ9Im0gMzcuNSwxMS4yMSBjIDIuMzksLTAuOTMgMy44MywtMi4wOSAzLjgzLC0zLjM2IDAsLTMuMDQgLTguMTksLTUuNSAtMTguMzEsLTUuNSAtMTAuMTEsMCAtMTguMzEsMi40NiAtMTguMzEsNS41IDAsMS4yNyAxLjQ0LDIuNDMgMy44NCwzLjM2IDMuMzUsLTEuMyA4LjU4LC0yLjE0IDE0LjQ3LC0yLjE0IDUuOSwwIDExLjEzLDAuODQgMTQuNDgsMi4xNCB6Ii8+JiN4YTsmI3hhOzxwYXRoIGlkPSJwYXRoMTA0NTUwIiBpbmtzY2FwZTpjb25uZWN0b3ItY3VydmF0dXJlPSIwIiBzdHlsZT0iZmlsbDojZmZmZmZmIiBkPSJtIDE1LjcxLDM5LjExIGMgMCwxLjM4IC0wLjUsMi40NSAtMS41LDMuMjEgLTEsMC43NSAtMi4zOCwxLjEzIC00LjE0LDEuMTMgLTEuNSwwIC0yLjc1LC0wLjI3IC0zLjc2LC0wLjgxIFYgMzkuNCBjIDEuMTYsMC45OCAyLjQ0LDEuNDggMy44NCwxLjQ4IDAuNjcsMCAxLjIsLTAuMTQgMS41NiwtMC40MSAwLjM3LC0wLjI3IDAuNTYsLTAuNjMgMC41NiwtMS4wNyAwLC0wLjQ0IC0wLjE4LC0wLjgyIC0wLjUzLC0xLjE1IEMgMTEuMzgsMzcuOTMgMTAuNjYsMzcuNTEgOS41NywzNyA3LjM2LDM1Ljk2IDYuMjUsMzQuNTQgNi4yNSwzMi43NCBjIDAsLTEuMyAwLjQ4LC0yLjM1IDEuNDUsLTMuMTMgMC45NiwtMC43OSAyLjI1LC0xLjE4IDMuODUsLTEuMTggMS40MiwwIDIuNTksMC4xOCAzLjUyLDAuNTUgdiAzLjAzIEMgMTQuMDksMzEuMzQgMTIuOTgsMzEgMTEuNzMsMzEgYyAtMC42MywwIC0xLjEyLDAuMTMgLTEuNDksMC40IC0wLjM2LDAuMjcgLTAuNTQsMC42MiAtMC41NCwxLjA3IDAsMC40NiAwLjE0LDAuODMgMC40NCwxLjEzIDAuMjksMC4yOSAwLjg5LDAuNjUgMS44LDEuMDkgMS4zNiwwLjY0IDIuMzMsMS4yOSAyLjkxLDEuOTUgMC41NywwLjY2IDAuODYsMS40OSAwLjg2LDIuNDcgeiIvPiYjeGE7JiN4YTs8cGF0aCBpZD0icGF0aDEwNDU1OCIgaW5rc2NhcGU6Y29ubmVjdG9yLWN1cnZhdHVyZT0iMCIgc3R5bGU9ImZpbGw6I2ZmZmZmZiIgZD0ibSAzMS4zMywzNS44NCBjIDAsMS43MSAtMC4zOSwzLjE5IC0xLjE2LDQuNDUgLTAuNzgsMS4yNSAtMS44NywyLjEzIC0zLjI4LDIuNjQgbCA0LjIxLDMuOSBoIC00LjI1IGwgLTMuMDEsLTMuMzcgYyAtMS4yOSwtMC4wNSAtMi40NiwtMC4zOSAtMy40OSwtMS4wMyAtMS4wNCwtMC42MyAtMS44NCwtMS41IC0yLjQsLTIuNjEgLTAuNTcsLTEuMSAtMC44NSwtMi4zMyAtMC44NSwtMy42OSAwLC0xLjUgMC4zMSwtMi44NSAwLjkyLC00LjAyIDAuNjEsLTEuMTggMS40NywtMi4wOSAyLjU3LC0yLjcyIDEuMTEsLTAuNjQgMi4zOCwtMC45NiAzLjgxLC0wLjk2IDEuMzQsMCAyLjU0LDAuMzEgMy41OSwwLjkzIDEuMDYsMC42MSAxLjg4LDEuNDggMi40NywyLjYyIDAuNTgsMS4xMyAwLjg3LDIuNDIgMC44NywzLjg2IHogbSAtMy40NCwwLjE4IGMgMCwtMS40NyAtMC4zMiwtMi42MyAtMC45NiwtMy40OSAtMC42NSwtMC44NSAtMS41MiwtMS4yOCAtMi42NCwtMS4yOCAtMS4xMywwIC0yLjA0LDAuNDMgLTIuNzIsMS4yOSAtMC42OCwwLjg1IC0xLjAzLDEuOTkgLTEuMDMsMy40MiAwLDEuNDIgMC4zNCwyLjU1IDEuMDEsMy40IDAuNjcsMC44NCAxLjU1LDEuMjcgMi42NiwxLjI3IDEuMTMsMCAyLjAyLC0wLjQxIDIuNjgsLTEuMjMgMC42NywtMC44MiAxLC0xLjk1IDEsLTMuMzggeiIvPiYjeGE7JiN4YTs8cGF0aCBpZD0icGF0aDEwNDU2NiIgaW5rc2NhcGU6Y29ubmVjdG9yLWN1cnZhdHVyZT0iMCIgc3R5bGU9ImZpbGw6I2ZmZmZmZiIgZD0iTSA0Mi4zOSw0My4yIEggMzMuNzQgViAyOC42NyBoIDMuMjcgdiAxMS44OCBoIDUuMzggeiIvPiYjeGE7PC9zdmc+;" parent="c07P4ZYzcnsUTolsN5iu-47" vertex="1">
          <mxGeometry x="750" y="245.5" width="46" height="61" as="geometry" />
        </mxCell>
        <mxCell id="c07P4ZYzcnsUTolsN5iu-31" value="" style="shape=image;verticalLabelPosition=bottom;labelBackgroundColor=#ffffff;verticalAlign=top;aspect=fixed;imageAspect=0;image=data:image/svg+xml,PHN2ZyB4bWxuczpkYz0iaHR0cDovL3B1cmwub3JnL2RjL2VsZW1lbnRzLzEuMS8iIHhtbG5zOmNjPSJodHRwOi8vY3JlYXRpdmVjb21tb25zLm9yZy9ucyMiIHhtbG5zOnJkZj0iaHR0cDovL3d3dy53My5vcmcvMTk5OS8wMi8yMi1yZGYtc3ludGF4LW5zIyIgeG1sbnM6c3ZnPSJodHRwOi8vd3d3LnczLm9yZy8yMDAwL3N2ZyIgeG1sbnM9Imh0dHA6Ly93d3cudzMub3JnLzIwMDAvc3ZnIiB4bWxuczpzb2RpcG9kaT0iaHR0cDovL3NvZGlwb2RpLnNvdXJjZWZvcmdlLm5ldC9EVEQvc29kaXBvZGktMC5kdGQiIHhtbG5zOmlua3NjYXBlPSJodHRwOi8vd3d3Lmlua3NjYXBlLm9yZy9uYW1lc3BhY2VzL2lua3NjYXBlIiB2ZXJzaW9uPSIxLjEiIGlkPSJzdmc1MDMyOSIgaW5rc2NhcGU6dmVyc2lvbj0iMC45Mi4zICgyNDA1NTQ2LCAyMDE4LTAzLTExKSIgc29kaXBvZGk6ZG9jbmFtZT0iYXp1cmUuc3ZnIiB4PSIwcHgiIHk9IjBweCIgdmlld0JveD0iMCAwIDYyLjc2IDQ4LjQ4IiBzdHlsZT0iZW5hYmxlLWJhY2tncm91bmQ6bmV3IDAgMCA2Mi43NiA0OC40ODsiIHhtbDpzcGFjZT0icHJlc2VydmUiPjxtZXRhZGF0YSBpZD0ibWV0YWRhdGExNjgwNyI+PHJkZjpSREY+PGNjOldvcmsgcmRmOmFib3V0PSIiPjxkYzpmb3JtYXQ+aW1hZ2Uvc3ZnK3htbDwvZGM6Zm9ybWF0PjxkYzp0eXBlIHJkZjpyZXNvdXJjZT0iaHR0cDovL3B1cmwub3JnL2RjL2RjbWl0eXBlL1N0aWxsSW1hZ2UiLz48ZGM6dGl0bGUvPjwvY2M6V29yaz48L3JkZjpSREY+PC9tZXRhZGF0YT48ZGVmcyBpZD0iZGVmczE2ODA1Ii8+JiN4YTs8c29kaXBvZGk6bmFtZWR2aWV3IGJvcmRlcmNvbG9yPSIjNjY2NjY2IiBib3JkZXJvcGFjaXR5PSIxIiBmaXQtbWFyZ2luLWJvdHRvbT0iMCIgZml0LW1hcmdpbi1sZWZ0PSIwIiBmaXQtbWFyZ2luLXJpZ2h0PSIwIiBmaXQtbWFyZ2luLXRvcD0iMCIgZ3JpZHRvbGVyYW5jZT0iMTAiIGd1aWRldG9sZXJhbmNlPSIxMCIgaWQ9Im5hbWVkdmlldzUwMzMxIiBpbmtzY2FwZTpjdXJyZW50LWxheWVyPSJzdmc1MDMyOSIgaW5rc2NhcGU6Y3g9IjQ5LjM2MTQ4NiIgaW5rc2NhcGU6Y3k9IjEyLjA3MjQ5NyIgaW5rc2NhcGU6cGFnZW9wYWNpdHk9IjAiIGlua3NjYXBlOnBhZ2VzaGFkb3c9IjIiIGlua3NjYXBlOndpbmRvdy1oZWlnaHQ9IjEwMTciIGlua3NjYXBlOndpbmRvdy1tYXhpbWl6ZWQ9IjEiIGlua3NjYXBlOndpbmRvdy13aWR0aD0iMTkyMCIgaW5rc2NhcGU6d2luZG93LXg9Ii04IiBpbmtzY2FwZTp3aW5kb3cteT0iLTgiIGlua3NjYXBlOnpvb209IjUuOTY3MzU3NyIgb2JqZWN0dG9sZXJhbmNlPSIxMCIgcGFnZWNvbG9yPSIjZmZmZmZmIiBzaG93Z3JpZD0iZmFsc2UiPiYjeGE7CTwvc29kaXBvZGk6bmFtZWR2aWV3PiYjeGE7JiN4YTs8cGF0aCBpZD0icGF0aDUwMzI0IiBpbmtzY2FwZTpjb25uZWN0b3ItY3VydmF0dXJlPSIwIiBzdHlsZT0iZmlsbDojMjA3NUI4OyIgZD0iTTE1LjY4LDQ4LjM2YzAuMDctMC4wNyw2LjQtMS4yMywxNC4wNi0yLjU3ICBjNy42NS0xLjM1LDEzLjk3LTIuNSwxNC4wMy0yLjU2YzAuMTItMC4xMS0wLjc1LTEuMTctMTAuMjItMTIuNDZjLTIuNTItMi45OS00LjYzLTUuNTYtNC43LTUuN2MtMC4wOS0wLjE5LDAuODktMy4wNCwzLjczLTEwLjgzICBjMi4xMS01LjgxLDMuODctMTAuNjUsMy45MS0xMC43NWMwLjAzLTAuMDksMC4xMy0wLjE3LDAuMjItMC4xN2MwLjE5LDAsMjYuMTQsNDQuOTEsMjYuMDUsNDUuMDZjLTAuMDQsMC4wNi0xMC42OCwwLjEtMjMuNjQsMC4xICBDMjUuMjEsNDguNDgsMTUuNiw0OC40MywxNS42OCw0OC4zNnogTTAsNDMuMDFjLTAuMDUtMC4xMywwLjU0LTEuMjksMS40NS0yLjg4YzAuODQtMS40Niw0LjQyLTcuNjYsNy45NS0xMy43N2w2LjQxLTExLjFsOS4wOC03LjYzICBDMjkuODgsMy40NCwzNC4wNCwwLDM0LjEzLDBjMC4xLDAsMC4xMywwLjA5LDAuMDgsMC4yNEMzMy43NCwxLjQ4LDE0LjMsNDIuOTIsMTQuMTMsNDMuMDVjLTAuMTksMC4xMy0xLjg0LDAuMTctNy4xNSwwLjE3ICBDMC45MSw0My4yMiwwLjA3LDQzLjE5LDAsNDMuMDF6Ii8+JiN4YTs8L3N2Zz4=;" parent="c07P4ZYzcnsUTolsN5iu-47" vertex="1">
          <mxGeometry x="850" y="30" width="63" height="48" as="geometry" />
        </mxCell>
        <mxCell id="c07P4ZYzcnsUTolsN5iu-19" value="" style="shape=image;verticalLabelPosition=bottom;labelBackgroundColor=#ffffff;verticalAlign=top;aspect=fixed;imageAspect=0;image=data:image/svg+xml,PHN2ZyB4bWxuczpkYz0iaHR0cDovL3B1cmwub3JnL2RjL2VsZW1lbnRzLzEuMS8iIHhtbG5zOmNjPSJodHRwOi8vY3JlYXRpdmVjb21tb25zLm9yZy9ucyMiIHhtbG5zOnJkZj0iaHR0cDovL3d3dy53My5vcmcvMTk5OS8wMi8yMi1yZGYtc3ludGF4LW5zIyIgeG1sbnM6c3ZnPSJodHRwOi8vd3d3LnczLm9yZy8yMDAwL3N2ZyIgeG1sbnM9Imh0dHA6Ly93d3cudzMub3JnLzIwMDAvc3ZnIiB4bWxuczpzb2RpcG9kaT0iaHR0cDovL3NvZGlwb2RpLnNvdXJjZWZvcmdlLm5ldC9EVEQvc29kaXBvZGktMC5kdGQiIHhtbG5zOmlua3NjYXBlPSJodHRwOi8vd3d3Lmlua3NjYXBlLm9yZy9uYW1lc3BhY2VzL2lua3NjYXBlIiB2ZXJzaW9uPSIxLjEiIGlkPSJzdmc1Njg2MSIgaW5rc2NhcGU6dmVyc2lvbj0iMC45Mi4zICgyNDA1NTQ2LCAyMDE4LTAzLTExKSIgc29kaXBvZGk6ZG9jbmFtZT0iYXp1cmVfZGF0YV9mYWN0b3J5LnN2ZyIgeD0iMHB4IiB5PSIwcHgiIHZpZXdCb3g9IjAgMCAxMDAuMSA5OS45IiB4bWw6c3BhY2U9InByZXNlcnZlIiB3aWR0aD0iMTAwLjEiIGhlaWdodD0iOTkuOTAwMDAyIj48bWV0YWRhdGEgaWQ9Im1ldGFkYXRhNjgyMyI+PHJkZjpSREY+PGNjOldvcmsgcmRmOmFib3V0PSIiPjxkYzpmb3JtYXQ+aW1hZ2Uvc3ZnK3htbDwvZGM6Zm9ybWF0PjxkYzp0eXBlIHJkZjpyZXNvdXJjZT0iaHR0cDovL3B1cmwub3JnL2RjL2RjbWl0eXBlL1N0aWxsSW1hZ2UiLz48ZGM6dGl0bGUvPjwvY2M6V29yaz48L3JkZjpSREY+PC9tZXRhZGF0YT48ZGVmcyBpZD0iZGVmczY4MjEiLz4mI3hhOzxmaWx0ZXIgaWQ9ImZpbHRlcl8yIj4mI3hhOwk8ZmVHYXVzc2lhbkJsdXIgaWQ9ImZlR2F1c3NpYW5CbHVyNTY4MTAiIHN0ZERldmlhdGlvbj0iMiIvPiYjeGE7PC9maWx0ZXI+JiN4YTs8c29kaXBvZGk6bmFtZWR2aWV3IGJvcmRlcmNvbG9yPSIjNjY2NjY2IiBib3JkZXJvcGFjaXR5PSIxIiBmaXQtbWFyZ2luLWJvdHRvbT0iMCIgZml0LW1hcmdpbi1sZWZ0PSIwIiBmaXQtbWFyZ2luLXJpZ2h0PSIwIiBmaXQtbWFyZ2luLXRvcD0iMCIgZ3JpZHRvbGVyYW5jZT0iMTAiIGd1aWRldG9sZXJhbmNlPSIxMCIgaWQ9Im5hbWVkdmlldzU2ODYzIiBpbmtzY2FwZTpjdXJyZW50LWxheWVyPSJzdmc1Njg2MSIgaW5rc2NhcGU6Y3g9Ii0yMi41MTIwNzIiIGlua3NjYXBlOmN5PSI1Ni44MTcyNzkiIGlua3NjYXBlOnBhZ2VvcGFjaXR5PSIwIiBpbmtzY2FwZTpwYWdlc2hhZG93PSIyIiBpbmtzY2FwZTp3aW5kb3ctaGVpZ2h0PSIxMDE3IiBpbmtzY2FwZTp3aW5kb3ctbWF4aW1pemVkPSIxIiBpbmtzY2FwZTp3aW5kb3ctd2lkdGg9IjE5MjAiIGlua3NjYXBlOndpbmRvdy14PSItOCIgaW5rc2NhcGU6d2luZG93LXk9Ii04IiBpbmtzY2FwZTp6b29tPSIzLjY5Njc5MDciIG9iamVjdHRvbGVyYW5jZT0iMTAiIHBhZ2Vjb2xvcj0iI2ZmZmZmZiIgc2hvd2dyaWQ9ImZhbHNlIj4mI3hhOwk8L3NvZGlwb2RpOm5hbWVkdmlldz4mI3hhOyYjeGE7PHBhdGggaWQ9InBhdGg1NjgyMyIgaW5rc2NhcGU6Y29ubmVjdG9yLWN1cnZhdHVyZT0iMCIgc3R5bGU9ImZpbGw6IzU5YjRkOSIgZD0iTSA5OS45LDU4Ljg2IFYgMzQuNjMgTCA3Mi40Nyw1OC40NiBoIC0wLjYgViAzNC42MyBMIDQ0LjQ0LDU4LjQ2IFYgOC42MSBDIDQ0LjQ0LDQuNCAzNS4wMywwLjIgMjIuNjIsMC4yIDEwLjIxLDAuMiAwLDQuMiAwLDguNjEgViA5OS45IEggMTAwLjEgWiBNIDIyLjYyLDEyLjYxIGMgLTkuMDEsMCAtMTYuMjEsLTIuMiAtMTYuMjEsLTQuNiAwLC0yLjQgNy4yLC00LjYxIDE2LjIxLC00LjYxIDkuMDEsMCAxNi4yMiwyLjAxIDE2LjIyLDQuNjEgLTAuMiwyLjQgLTcuNDEsNC42IC0xNi4yMiw0LjYgeiBNIDY5Ljg3LDgzLjY4IEggNTguODYgViA3Mi42NyBoIDExLjAxIHogbSAtMTkuNDIsMCBIIDM5LjQ0IFYgNzIuNjcgaCAxMS4wMSB6IG0gMjguMDMsMCBWIDcyLjY3IGggMTEuMDEgdiAxMS4wMSB6Ii8+JiN4YTsmI3hhOzxyZWN0IGlkPSJyZWN0NTY4MzEiIHg9IjAiIHk9IjguMDEwMDAwMiIgc3R5bGU9ImZpbGw6IzM5OTljNiIgd2lkdGg9IjIyLjIxOTk5OSIgaGVpZ2h0PSI5MS44ODk5OTkiLz4mI3hhOyYjeGE7PHBhdGggaWQ9InBhdGg1NjgzOSIgaW5rc2NhcGU6Y29ubmVjdG9yLWN1cnZhdHVyZT0iMCIgc3R5bGU9ImZpbGw6I2ZmZmZmZiIgZD0ibSA0NC4yNCw4LjAxIGMgMCw0LjQgLTEwLjAxLDguMDEgLTIyLjIyLDguMDEgQyA5LjgxLDE2LjAyIDAsMTIuNDEgMCw4LjAxIDAsMy42IDEwLjAxLDAgMjIuMjIsMCAzNC40MywwIDQ0LjI0LDMuNCA0NC4yNCw4LjAxIFoiLz4mI3hhOyYjeGE7PHBhdGggaWQ9InBhdGg1Njg0NyIgaW5rc2NhcGU6Y29ubmVjdG9yLWN1cnZhdHVyZT0iMCIgc3R5bGU9ImZpbGw6IzdmYmEwMCIgZD0ibSAzOS44Myw3LjQxIGMgMCwzIC03LjgsNS4yMSAtMTcuNjEsNS4yMSAtOS44MSwwIC0xNy42MiwtMi4yMSAtMTcuNjIsLTUuMjEgMCwtMyA3LjgxLC01LjIgMTcuNjIsLTUuMiA5LjgxLDAgMTcuNjEsMi40IDE3LjYxLDUuMiB6Ii8+JiN4YTsmI3hhOzxwYXRoIGlkPSJwYXRoNTY4NTUiIGlua3NjYXBlOmNvbm5lY3Rvci1jdXJ2YXR1cmU9IjAiIHN0eWxlPSJmaWxsOiNiOGQ0MzIiIGQ9Im0gMzYuMDMsMTAuNjEgYyAyLjQsLTAuOCAzLjYsLTIgMy42LC0zLjIxIDAsLTMgLTcuOCwtNS4yIC0xNy42MSwtNS4yIEMgMTIuMjEsMi4yIDQuNCw0LjYgNC40LDcuNCA0LjYsOC42MSA2LDkuODEgOC4yLDEwLjYxIGMgMy4yMSwtMS4yIDguMjEsLTIgMTQuMDIsLTIgNS42LDAgMTAuNjEsMC44IDEzLjgxLDIgeiIvPiYjeGE7PC9zdmc+;" parent="c07P4ZYzcnsUTolsN5iu-47" vertex="1">
          <mxGeometry x="580" y="77.99999999999955" width="59" height="59" as="geometry" />
        </mxCell>
        <mxCell id="c07P4ZYzcnsUTolsN5iu-23" value="Power BI" style="shape=image;verticalLabelPosition=bottom;labelBackgroundColor=#ffffff;verticalAlign=top;aspect=fixed;imageAspect=0;image=data:image/svg+xml,PHN2ZyB4bWxuczpkYz0iaHR0cDovL3B1cmwub3JnL2RjL2VsZW1lbnRzLzEuMS8iIHhtbG5zOmNjPSJodHRwOi8vY3JlYXRpdmVjb21tb25zLm9yZy9ucyMiIHhtbG5zOnJkZj0iaHR0cDovL3d3dy53My5vcmcvMTk5OS8wMi8yMi1yZGYtc3ludGF4LW5zIyIgeG1sbnM6c3ZnPSJodHRwOi8vd3d3LnczLm9yZy8yMDAwL3N2ZyIgeG1sbnM9Imh0dHA6Ly93d3cudzMub3JnLzIwMDAvc3ZnIiB4bWxuczpzb2RpcG9kaT0iaHR0cDovL3NvZGlwb2RpLnNvdXJjZWZvcmdlLm5ldC9EVEQvc29kaXBvZGktMC5kdGQiIHhtbG5zOmlua3NjYXBlPSJodHRwOi8vd3d3Lmlua3NjYXBlLm9yZy9uYW1lc3BhY2VzL2lua3NjYXBlIiB2ZXJzaW9uPSIxLjEiIGlkPSJzdmc5MTUxMCIgaW5rc2NhcGU6dmVyc2lvbj0iMC45Mi4zICgyNDA1NTQ2LCAyMDE4LTAzLTExKSIgc29kaXBvZGk6ZG9jbmFtZT0icG93ZXJfYmlfZW1iZWRkZWQuc3ZnIiB4PSIwcHgiIHk9IjBweCIgdmlld0JveD0iMCAwIDg0LjI2IDg4LjcwMjAzNyIgeG1sOnNwYWNlPSJwcmVzZXJ2ZSIgd2lkdGg9Ijg0LjI2MDAwMiIgaGVpZ2h0PSI4OC43MDIwMzQiPjxtZXRhZGF0YSBpZD0ibWV0YWRhdGEyODkiPjxyZGY6UkRGPjxjYzpXb3JrIHJkZjphYm91dD0iIj48ZGM6Zm9ybWF0PmltYWdlL3N2Zyt4bWw8L2RjOmZvcm1hdD48ZGM6dHlwZSByZGY6cmVzb3VyY2U9Imh0dHA6Ly9wdXJsLm9yZy9kYy9kY21pdHlwZS9TdGlsbEltYWdlIi8+PGRjOnRpdGxlLz48L2NjOldvcms+PC9yZGY6UkRGPjwvbWV0YWRhdGE+PGRlZnMgaWQ9ImRlZnMyODciPiYjeGE7CSYjeGE7JiN4YTsJJiN4YTsmI3hhOwkmI3hhOyYjeGE7CSYjeGE7JiN4YTsJJiN4YTs8L2RlZnM+JiN4YTs8ZmlsdGVyIGlkPSJmaWx0ZXJfMiI+JiN4YTsJPGZlR2F1c3NpYW5CbHVyIGlkPSJmZUdhdXNzaWFuQmx1cjkxNDUzIiBzdGREZXZpYXRpb249IjIiLz4mI3hhOzwvZmlsdGVyPiYjeGE7PHNvZGlwb2RpOm5hbWVkdmlldyBib3JkZXJjb2xvcj0iIzY2NjY2NiIgYm9yZGVyb3BhY2l0eT0iMSIgZml0LW1hcmdpbi1ib3R0b209IjAiIGZpdC1tYXJnaW4tbGVmdD0iMCIgZml0LW1hcmdpbi1yaWdodD0iMCIgZml0LW1hcmdpbi10b3A9IjAiIGdyaWR0b2xlcmFuY2U9IjEwIiBndWlkZXRvbGVyYW5jZT0iMTAiIGlkPSJuYW1lZHZpZXc5MTUxMiIgaW5rc2NhcGU6Y3VycmVudC1sYXllcj0ic3ZnOTE1MTAiIGlua3NjYXBlOmN4PSItNTAuNTM4Nzk5IiBpbmtzY2FwZTpjeT0iMzcuMDA2NjM2IiBpbmtzY2FwZTpwYWdlb3BhY2l0eT0iMCIgaW5rc2NhcGU6cGFnZXNoYWRvdz0iMiIgaW5rc2NhcGU6d2luZG93LWhlaWdodD0iMTAxNyIgaW5rc2NhcGU6d2luZG93LW1heGltaXplZD0iMSIgaW5rc2NhcGU6d2luZG93LXdpZHRoPSIxOTIwIiBpbmtzY2FwZTp3aW5kb3cteD0iLTgiIGlua3NjYXBlOndpbmRvdy15PSItOCIgaW5rc2NhcGU6em9vbT0iNC4wOTY1OTQ1IiBvYmplY3R0b2xlcmFuY2U9IjEwIiBwYWdlY29sb3I9IiNmZmZmZmYiIHNob3dncmlkPSJmYWxzZSI+JiN4YTsJPC9zb2RpcG9kaTpuYW1lZHZpZXc+JiN4YTsmI3hhOzxwYXRoIGlkPSJwYXRoOTE0NzAiIGlua3NjYXBlOmNvbm5lY3Rvci1jdXJ2YXR1cmU9IjAiIGQ9Im0gMjYuNDYsNzEuMzQyMDMzIGMgMCwzLjA1IC0yLjM3LDUuNCAtNS40LDUuNCAtMy4wNCwwIC01LjM5LC0yLjM1IC01LjM5LC01LjQgdiAtMjMuNDEgYyAwLC0zLjA0IDIuMzUsLTUuNCA1LjM5LC01LjQgMy4wMywwIDUuNCwyLjM2IDUuNCw1LjQgeiIvPiYjeGE7JiN4YTs8cGF0aCBpZD0icGF0aDkxNDc4IiBpbmtzY2FwZTpjb25uZWN0b3ItY3VydmF0dXJlPSIwIiBkPSJtIDQyLjMsNzcuNzQyMDMzIGMgMCwzLjA1IC0yLjM3LDUuNCAtNS40LDUuNCAtMy4wNCwwIC01LjM5LC0yLjM1IC01LjM5LC01LjQgdiAtMzUuODggYyAwLC0zLjA0IDIuMzUsLTUuNCA1LjM5LC01LjQgMy4wMywwIDUuNCwyLjM2IDUuNCw1LjQgeiIvPiYjeGE7JiN4YTs8cGF0aCBpZD0icGF0aDkxNDg2IiBpbmtzY2FwZTpjb25uZWN0b3ItY3VydmF0dXJlPSIwIiBkPSJtIDEwLjc5LDY2LjExMjAzMyBjIDAsMy4wNSAtMi4zNyw1LjQgLTUuNCw1LjQgLTMuMDQsMCAtNS4zOSwtMi4zNSAtNS4zOSwtNS40IHYgLTEyLjYyIGMgMCwtMy4wNSAyLjM1LC01LjQgNS4zOSwtNS40IDMuMDMsMCA1LjQsMi4zNSA1LjQsNS40IHoiLz4mI3hhOyYjeGE7PHBhdGggaWQ9InBhdGg5MTQ5NCIgaW5rc2NhcGU6Y29ubmVjdG9yLWN1cnZhdHVyZT0iMCIgZD0ibSA1OC4xNCw4My4zMDIwMzMgYyAwLDMuMDUgLTIuMzcsNS40IC01LjQsNS40IC0zLjA0LDAgLTUuMzksLTIuMzUgLTUuMzksLTUuNCB2IC00Ny41MiBjIDAsLTMuMDIgMi4zNSwtNS4zOCA1LjM5LC01LjM4IDMuMDMsMCA1LjQsMi4zNiA1LjQsNS4zOCB6Ii8+JiN4YTsmI3hhOzxwYXRoIGlkPSJwYXRoOTE1MDIiIGlua3NjYXBlOmNvbm5lY3Rvci1jdXJ2YXR1cmU9IjAiIGQ9Im0gNzUuMzMsODAuOTUyMDMzIGMgLTAuODMsMCAtMS44NiwtMC4xNiAtMi42OSwtMC41IGwgLTYuNzQsLTIuMTkgYyAtMS4xOCwtMC4zNCAtMS43LC0xLjUyIC0xLjM2LC0yLjcxIDAuMzQsLTEuMTYgMS41MiwtMS42OCAyLjcxLC0xLjM0IGwgNi43MywyLjE5IGMgMS4zNSwwLjUyIDIuODcsMC4xOCA0LjA1LC0wLjY3IDEuMTcsLTAuODUgMS44NCwtMi4xOSAxLjg0LC0zLjcxIHYgLTQzLjY0IGMgMCwtMi4wMyAtMS4zNCwtMy44OSAtMy4yLC00LjM4IEwgMTIuODEsNC42MTIwMzM0IGMgLTEuMzUsLTAuNTEgLTIuODcsLTAuMTYgLTQuMDQsMC42OCAtMS4xOCwwLjg0IC0xLjg1LDIuMTkgLTEuODUsMy43MSBWIDM5LjAwMjAzMyBjIDAsMS4xOCAtMS4wMSwyLjE5IC0yLjIsMi4xOSAtMS4xOCwwIC0yLjE5LC0xLjAxIC0yLjE5LC0yLjE5IFYgOS4wMDIwMzM0IGMgMCwtMi44NyAxLjM0LC01LjQgMy41NCwtNy4yNSAyLjM1LC0xLjY3OTk5OTk4IDUuMjIsLTIuMTk5OTk5OTggNy45MiwtMS4zNDk5OTk5OCBMIDc3Ljg2LDE5Ljc5MjAzMyBjIDMuNzEsMS4xNyA2LjQsNC41NCA2LjQsOC41OSB2IDQzLjY0IGMgMCwyLjg2IC0xLjM0LDUuNTcgLTMuNyw3LjI1IC0xLjY5LDEuMTggLTMuMzcsMS42OCAtNS4yMywxLjY4IHoiLz4mI3hhOzwvc3ZnPg==;" parent="c07P4ZYzcnsUTolsN5iu-47" vertex="1">
          <mxGeometry x="844.68" y="110" width="56.63" height="60" as="geometry" />
        </mxCell>
        <mxCell id="OC8hzQOqMFoO2Zi8FBlJ-5" style="edgeStyle=orthogonalEdgeStyle;rounded=0;orthogonalLoop=1;jettySize=auto;html=1;exitX=0.5;exitY=1;exitDx=0;exitDy=0;" edge="1" parent="c07P4ZYzcnsUTolsN5iu-47" source="c07P4ZYzcnsUTolsN5iu-23" target="c07P4ZYzcnsUTolsN5iu-23">
          <mxGeometry relative="1" as="geometry" />
        </mxCell>
        <mxCell id="OC8hzQOqMFoO2Zi8FBlJ-2" value="Azure Data Studio" style="image;aspect=fixed;html=1;points=[];align=center;fontSize=12;image=img/lib/azure2/iot/Time_Series_Data_Sets.svg;" vertex="1" parent="c07P4ZYzcnsUTolsN5iu-47">
          <mxGeometry x="830" y="364" width="46.68" height="62" as="geometry" />
        </mxCell>
        <mxCell id="OC8hzQOqMFoO2Zi8FBlJ-3" value="" style="editableCssRules=.*;html=1;shape=image;verticalLabelPosition=bottom;labelBackgroundColor=#ffffff;verticalAlign=top;aspect=fixed;imageAspect=0;image=data:image/svg+xml,PHN2ZyB4bWxucz0iaHR0cDovL3d3dy53My5vcmcvMjAwMC9zdmciIHhtbG5zOnY9Imh0dHBzOi8vdmVjdGEuaW8vbmFubyIgd2lkdGg9IjIwLjAwMDAyNjcwMjg4MDg2IiBoZWlnaHQ9IjE4LjM1OTQ1MTI5Mzk0NTMxMiIgdmlld0JveD0iLTAuMDAwMDI2Njc4MTQ5ODc5NDQ0MzkgMC4wMDAwOTc3MzIxMjUxNDExOTIyMyAyMC4wMDAwMjY3MDI4ODA4NiAxOC4zNTk0NTEyOTM5NDUzMTIiPiYjeGE7CTxzdHlsZSB0eXBlPSJ0ZXh0L2NzcyI+JiN4YTsJLnN0MHtmaWxsOiM2NjlkZjY7fSYjeGE7CS5zdDF7ZmlsbDojNDI4NWY0O30mI3hhOwk8L3N0eWxlPiYjeGE7CTxwYXRoIGNsYXNzPSJzdDAiIGQ9Ik0xNy41IDEzLjM0OGgtNy4yNmEyLjUzIDIuNTMgMCAwIDAtMi43NCAyLjUgMi41IDIuNSAwIDAgMCAyLjc0IDIuNWg3LjI2eiIgZmlsbD0iIzY2OWRmNiIvPiYjeGE7CTxjaXJjbGUgY2xhc3M9InN0MSIgY3g9IjE3LjUiIGN5PSIxNS44NDgiIHI9IjIuNSIgZmlsbD0iIzQyODVmNCIvPiYjeGE7CTxwYXRoIGNsYXNzPSJzdDAiIGQ9Ik0xMCA2LjY3OEgyLjc0QTIuNTMgMi41MyAwIDAgMCAwIDkuMTc4YTIuNSAyLjUgMCAwIDAgMi43NCAyLjVIMTB6IiBmaWxsPSIjNjY5ZGY2Ii8+JiN4YTsJPGNpcmNsZSBjbGFzcz0ic3QxIiBjeD0iMTAiIGN5PSI5LjE3OCIgcj0iMi41IiBmaWxsPSIjNDI4NWY0Ii8+JiN4YTsJPHBhdGggY2xhc3M9InN0MCIgZD0iTTE3LjUuMDA4aC03LjI2YTIuNTQgMi41NCAwIDAgMC0yLjc0IDIuNSAyLjUgMi41IDAgMCAwIDIuNzQgMi41aDcuMjZ6IiBmaWxsPSIjNjY5ZGY2Ii8+JiN4YTsJPGNpcmNsZSBjbGFzcz0ic3QxIiBjeD0iMTcuNSIgY3k9IjIuNTA4IiByPSIyLjUiIGZpbGw9IiM0Mjg1ZjQiLz4mI3hhOzwvc3ZnPg==;" vertex="1" parent="c07P4ZYzcnsUTolsN5iu-47">
          <mxGeometry x="861.5" y="346" width="40" height="36" as="geometry" />
        </mxCell>
        <mxCell id="c07P4ZYzcnsUTolsN5iu-49" style="edgeStyle=orthogonalEdgeStyle;rounded=0;orthogonalLoop=1;jettySize=auto;html=1;entryX=0;entryY=0.5;entryDx=0;entryDy=0;" parent="1" source="AcxdMaKK0mU5kZiv2lnr-9" target="c07P4ZYzcnsUTolsN5iu-39" edge="1">
          <mxGeometry relative="1" as="geometry" />
        </mxCell>
        <mxCell id="OC8hzQOqMFoO2Zi8FBlJ-1" value="" style="shape=image;verticalLabelPosition=bottom;labelBackgroundColor=#ffffff;verticalAlign=top;aspect=fixed;imageAspect=0;image=data:image/svg+xml,PHN2ZyB4bWxuczpjYz0iaHR0cDovL2NyZWF0aXZlY29tbW9ucy5vcmcvbnMjIiB4bWxuczpkYz0iaHR0cDovL3B1cmwub3JnL2RjL2VsZW1lbnRzLzEuMS8iIHhtbG5zOmlua3NjYXBlPSJodHRwOi8vd3d3Lmlua3NjYXBlLm9yZy9uYW1lc3BhY2VzL2lua3NjYXBlIiB4bWxuczpyZGY9Imh0dHA6Ly93d3cudzMub3JnLzE5OTkvMDIvMjItcmRmLXN5bnRheC1ucyMiIHhtbG5zOnNvZGlwb2RpPSJodHRwOi8vc29kaXBvZGkuc291cmNlZm9yZ2UubmV0L0RURC9zb2RpcG9kaS0wLmR0ZCIgeG1sbnM6c3ZnPSJodHRwOi8vd3d3LnczLm9yZy8yMDAwL3N2ZyIgeG1sbnM9Imh0dHA6Ly93d3cudzMub3JnLzIwMDAvc3ZnIiB4bWxuczp4bGluaz0iaHR0cDovL3d3dy53My5vcmcvMTk5OS94bGluayIgdmVyc2lvbj0iMS4xIiBpZD0ic3ZnNzMyNjUiIGlua3NjYXBlOnZlcnNpb249IjAuOTIuMyAoMjQwNTU0NiwgMjAxOC0wMy0xMSkiIHNvZGlwb2RpOmRvY25hbWU9ImNvbnRhaW5lcnMuc3ZnIiB4PSIwcHgiIHk9IjBweCIgdmlld0JveD0iMCAwIDExNyA5NC4wNyIgc3R5bGU9ImVuYWJsZS1iYWNrZ3JvdW5kOm5ldyAwIDAgMTE3IDk0LjA3OyIgeG1sOnNwYWNlPSJwcmVzZXJ2ZSI+JiN4YTs8c29kaXBvZGk6bmFtZWR2aWV3IGJvcmRlcmNvbG9yPSIjNjY2NjY2IiBib3JkZXJvcGFjaXR5PSIxIiBmaXQtbWFyZ2luLWJvdHRvbT0iMCIgZml0LW1hcmdpbi1sZWZ0PSIwIiBmaXQtbWFyZ2luLXJpZ2h0PSIwIiBmaXQtbWFyZ2luLXRvcD0iMCIgZ3JpZHRvbGVyYW5jZT0iMTAiIGd1aWRldG9sZXJhbmNlPSIxMCIgaWQ9Im5hbWVkdmlldzczMjY3IiBpbmtzY2FwZTpjdXJyZW50LWxheWVyPSJzdmc3MzI2NSIgaW5rc2NhcGU6Y3g9IjkwLjQwMDE0NiIgaW5rc2NhcGU6Y3k9IjU1LjUyNTQ2OCIgaW5rc2NhcGU6cGFnZW9wYWNpdHk9IjAiIGlua3NjYXBlOnBhZ2VzaGFkb3c9IjIiIGlua3NjYXBlOndpbmRvdy1oZWlnaHQ9IjEwMTciIGlua3NjYXBlOndpbmRvdy1tYXhpbWl6ZWQ9IjEiIGlua3NjYXBlOndpbmRvdy13aWR0aD0iMTkyMCIgaW5rc2NhcGU6d2luZG93LXg9Ii04IiBpbmtzY2FwZTp3aW5kb3cteT0iLTgiIGlua3NjYXBlOnpvb209IjQuNDY5ODM4NSIgb2JqZWN0dG9sZXJhbmNlPSIxMCIgcGFnZWNvbG9yPSIjZmZmZmZmIiBzaG93Z3JpZD0iZmFsc2UiPiYjeGE7CTwvc29kaXBvZGk6bmFtZWR2aWV3PiYjeGE7PGcgaWQ9InNoYXBlNTc5Ni0zIiB0cmFuc2Zvcm09InRyYW5zbGF0ZSgyNi42MjQ3MDcsLTEzLjUxNzUpIj4mI3hhOwk8dGl0bGUgaWQ9InRpdGxlNzI5ODgiPnJlY3Q0MDQwPC90aXRsZT4mI3hhOwk8cmVjdCBpZD0icmVjdDcyOTkwIiB4PSIwIiB5PSIzNS4zNyIgc3R5bGU9ImZpbGw6bm9uZTsiIHdpZHRoPSI2OS43NSIgaGVpZ2h0PSI2Ny41Ii8+JiN4YTs8L2c+JiN4YTs8ZyBpZD0iZ3JvdXA1Nzk3LTUiIHRyYW5zZm9ybT0idHJhbnNsYXRlKDM0Ljg3NDcwNywtMjAuODE1KSI+JiN4YTsJPHRpdGxlIGlkPSJ0aXRsZTcyOTkzIj5nNDA1ODwvdGl0bGU+JiN4YTsJPGcgaWQ9InNoYXBlNTc5OC02IiB0cmFuc2Zvcm09InRyYW5zbGF0ZSgxMiwtMTMuODQ1KSI+JiN4YTsJCTx0aXRsZSBpZD0idGl0bGU3Mjk5NSI+cG9seWdvbjQwNDI8L3RpdGxlPiYjeGE7CQk8cGF0aCBpZD0icGF0aDcyOTk3IiBpbmtzY2FwZTpjb25uZWN0b3ItY3VydmF0dXJlPSIwIiBzdHlsZT0iZmlsbDojNTU2QThBOyIgZD0iTTAsOTYuMjFsMTEuMjUsNi42NlY5MC4yNEwwLDgzLjU4Vjk2LjIxeiIvPiYjeGE7CTwvZz4mI3hhOwk8ZyBpZD0ic2hhcGU1Nzk5LTgiIHRyYW5zZm9ybT0idHJhbnNsYXRlKDAsLTIxLjExMjUpIj4mI3hhOwkJPHRpdGxlIGlkPSJ0aXRsZTczMDAwIj5wb2x5Z29uNDA0NDwvdGl0bGU+JiN4YTsJCTxwYXRoIGlkPSJwYXRoNzMwMDIiIGlua3NjYXBlOmNvbm5lY3Rvci1jdXJ2YXR1cmU9IjAiIHN0eWxlPSJmaWxsOiM1NTZBOEE7IiBkPSJNMCw4My4zM3YxMi41OGwxMS4yNSw2Ljk2VjkwLjI0TDAsODMuMzFWODMuMzN6Ii8+JiN4YTsJPC9nPiYjeGE7CTxnIGlkPSJzaGFwZTU4MDAtMTAiIHRyYW5zZm9ybT0idHJhbnNsYXRlKDM2LC0yMS4xMTI1KSI+JiN4YTsJCTx0aXRsZSBpZD0idGl0bGU3MzAwNSI+cG9seWdvbjQwNDY8L3RpdGxlPiYjeGE7CQk8cGF0aCBpZD0icGF0aDczMDA3IiBpbmtzY2FwZTpjb25uZWN0b3ItY3VydmF0dXJlPSIwIiBzdHlsZT0iZmlsbDojOTM5NTk4OyIgZD0iTTExLjI1LDgzLjMzdi0wLjAyTDAsOTAuMjR2MTIuNjNsMTEuMjUtNi45NiAgICBWODMuMzN6Ii8+JiN4YTsJPC9nPiYjeGE7CTxnIGlkPSJzaGFwZTU4MDEtMTIiIHRyYW5zZm9ybT0idHJhbnNsYXRlKDEyKSI+JiN4YTsJCTx0aXRsZSBpZD0idGl0bGU3MzAxMCI+cG9seWdvbjQwNDg8L3RpdGxlPiYjeGE7CQk8cGF0aCBpZD0icGF0aDczMDEyIiBpbmtzY2FwZTpjb25uZWN0b3ItY3VydmF0dXJlPSIwIiBzdHlsZT0iZmlsbDojNTU2QThBOyIgZD0iTTAsODMuNTJ2MTMuMDlsMTEuMjUsNi4yNlY5MC4xOEwwLDgzLjUyeiIvPiYjeGE7CTwvZz4mI3hhOwk8ZyBpZD0ic2hhcGU1ODAyLTE0IiB0cmFuc2Zvcm09InRyYW5zbGF0ZSgzNiwtNi44MjUpIj4mI3hhOwkJPHRpdGxlIGlkPSJ0aXRsZTczMDE1Ij5wb2x5Z29uNDA1MDwvdGl0bGU+JiN4YTsJCTxwYXRoIGlkPSJwYXRoNzMwMTciIGlua3NjYXBlOmNvbm5lY3Rvci1jdXJ2YXR1cmU9IjAiIHN0eWxlPSJmaWxsOiM5Mzk1OTg7IiBkPSJNMTEuMjUsOTYuMzNWODIuNzdMMCw4OS43NHYxMy4xM0wxMS4yNSw5Ni4zM3oiLz4mI3hhOwk8L2c+JiN4YTsJPGcgaWQ9InNoYXBlNTgwMy0xNiIgdHJhbnNmb3JtPSJ0cmFuc2xhdGUoMCwtNi44MjUpIj4mI3hhOwkJPHRpdGxlIGlkPSJ0aXRsZTczMDIwIj5wb2x5Z29uNDA1MjwvdGl0bGU+JiN4YTsJCTxwYXRoIGlkPSJwYXRoNzMwMjIiIGlua3NjYXBlOmNvbm5lY3Rvci1jdXJ2YXR1cmU9IjAiIHN0eWxlPSJmaWxsOiM1NTZBOEE7IiBkPSJNMCw5Ni4zM2wxMS4yNSw2LjU0Vjg5Ljc0TDAsODIuNzdWOTYuMzN6Ii8+JiN4YTsJPC9nPiYjeGE7CTxnIGlkPSJzaGFwZTU4MDQtMTgiIHRyYW5zZm9ybT0idHJhbnNsYXRlKDI0LC0xMy44NDUpIj4mI3hhOwkJPHRpdGxlIGlkPSJ0aXRsZTczMDI1Ij5wb2x5Z29uNDA1NDwvdGl0bGU+JiN4YTsJCTxwYXRoIGlkPSJwYXRoNzMwMjciIGlua3NjYXBlOmNvbm5lY3Rvci1jdXJ2YXR1cmU9IjAiIHN0eWxlPSJmaWxsOiM5Mzk1OTg7IiBkPSJNMTEuMjUsOTYuMjFWODMuNThMMCw5MC4yNHYxMi42M0wxMS4yNSw5Ni4yMXoiLz4mI3hhOwk8L2c+JiN4YTsJPGcgaWQ9InNoYXBlNTgwNS0yMCIgdHJhbnNmb3JtPSJ0cmFuc2xhdGUoMjQpIj4mI3hhOwkJPHRpdGxlIGlkPSJ0aXRsZTczMDMwIj5wb2x5Z29uNDA1NjwvdGl0bGU+JiN4YTsJCTxwYXRoIGlkPSJwYXRoNzMwMzIiIGlua3NjYXBlOmNvbm5lY3Rvci1jdXJ2YXR1cmU9IjAiIHN0eWxlPSJmaWxsOiM5Mzk1OTg7IiBkPSJNMCwxMDIuODdsMTEuMjUtNi4yNlY4My41MkwwLDkwLjE4VjEwMi44N3oiLz4mI3hhOwk8L2c+JiN4YTs8L2c+JiN4YTs8ZyBpZD0ic2hhcGU1ODA3LTIzIiB0cmFuc2Zvcm09InRyYW5zbGF0ZSg0Ny41MTk3MDcsLTc1Ljg4NzUpIj4mI3hhOwk8dGl0bGUgaWQ9InRpdGxlNzMwMzkiPnBvbHlnb240MDYyPC90aXRsZT4mI3hhOwk8cGF0aCBpZD0icGF0aDczMDQxIiBpbmtzY2FwZTpjb25uZWN0b3ItY3VydmF0dXJlPSIwIiBzdHlsZT0iZmlsbDojMkJDN0Y0OyIgZD0iTTEwLjU2LDg5LjY4TDAsOTYuMTJsMTAuOTYsNi43NWwxMC41Ni02LjUgICBMMTAuNTYsODkuNjh6Ii8+JiN4YTs8L2c+JiN4YTs8ZyBpZD0ic2hhcGU1ODA4LTI1IiB0cmFuc2Zvcm09InRyYW5zbGF0ZSg0Ni44NzQ3MDcsLTYyLjQxKSI+JiN4YTsJPHRpdGxlIGlkPSJ0aXRsZTczMDQ0Ij5wb2x5Z29uNDA2NDwvdGl0bGU+JiN4YTsJPHBhdGggaWQ9InBhdGg3MzA0NiIgaW5rc2NhcGU6Y29ubmVjdG9yLWN1cnZhdHVyZT0iMCIgc3R5bGU9ImZpbGw6IzU1NkE4QTsiIGQ9Ik0wLDk2LjIxbDExLjI1LDYuNjZWOTAuMjRMMCw4My41OFY5Ni4yMXoiLz4mI3hhOzwvZz4mI3hhOzxnIGlkPSJzaGFwZTU4MDktMjciIHRyYW5zZm9ybT0idHJhbnNsYXRlKDU5LjAyNDcwNywtODIuOTYpIj4mI3hhOwk8dGl0bGUgaWQ9InRpdGxlNzMwNDkiPnBvbHlnb240MDY2PC90aXRsZT4mI3hhOwk8cGF0aCBpZD0icGF0aDczMDUxIiBpbmtzY2FwZTpjb25uZWN0b3ItY3VydmF0dXJlPSIwIiBzdHlsZT0iZmlsbDojMkJDN0Y0OyIgZD0iTTEwLjk2LDEwMi44N2wxMS4xMS02Ljg0bC0xMS4yMS02LjQ4TDAsOTYuMTggICBMMTAuOTYsMTAyLjg3eiIvPiYjeGE7PC9nPiYjeGE7PGcgaWQ9InNoYXBlNTgxMC0yOSIgdHJhbnNmb3JtPSJ0cmFuc2xhdGUoMzQuODc0NzA3LC02OS42Nzc1KSI+JiN4YTsJPHRpdGxlIGlkPSJ0aXRsZTczMDU0Ij5wb2x5Z29uNDA2ODwvdGl0bGU+JiN4YTsJPHBhdGggaWQ9InBhdGg3MzA1NiIgaW5rc2NhcGU6Y29ubmVjdG9yLWN1cnZhdHVyZT0iMCIgc3R5bGU9ImZpbGw6IzU1NkE4QTsiIGQ9Ik0wLDgzLjMzdjEyLjU4bDExLjI1LDYuOTZWOTAuMjRMMCw4My4zMVY4My4zM3oiLz4mI3hhOzwvZz4mI3hhOzxnIGlkPSJzaGFwZTU4MTEtMzEiIHRyYW5zZm9ybT0idHJhbnNsYXRlKDcwLjg3NDcwNywtNjkuNjc3NSkiPiYjeGE7CTx0aXRsZSBpZD0idGl0bGU3MzA1OSI+cG9seWdvbjQwNzA8L3RpdGxlPiYjeGE7CTxwYXRoIGlkPSJwYXRoNzMwNjEiIGlua3NjYXBlOmNvbm5lY3Rvci1jdXJ2YXR1cmU9IjAiIHN0eWxlPSJmaWxsOiM5Mzk1OTg7IiBkPSJNMTEuMjUsODMuMzN2LTAuMDJMMCw5MC4yNHYxMi42M2wxMS4yNS02Ljk2ICAgVjgzLjMzeiIvPiYjeGE7PC9nPiYjeGE7PGcgaWQ9InNoYXBlNTgxMi0zMyIgdHJhbnNmb3JtPSJ0cmFuc2xhdGUoMzUuODcyMjA3LC04My4yMDc1KSI+JiN4YTsJPHRpdGxlIGlkPSJ0aXRsZTczMDY0Ij5wb2x5Z29uNDA3MjwvdGl0bGU+JiN4YTsJPHBhdGggaWQ9InBhdGg3MzA2NiIgaW5rc2NhcGU6Y29ubmVjdG9yLWN1cnZhdHVyZT0iMCIgc3R5bGU9ImZpbGw6IzJCQzdGNDsiIGQ9Ik0yMS4yNiw5Ni40MmwtMTAuNDctNi4zOEwwLDk2LjI3bDEwLjcxLDYuNiAgIEwyMS4yNiw5Ni40MnoiLz4mI3hhOzwvZz4mI3hhOzxnIGlkPSJzaGFwZTU4MTMtMzUiIHRyYW5zZm9ybT0idHJhbnNsYXRlKDQ2Ljg3NDcwNywtNDguNTY1KSI+JiN4YTsJPHRpdGxlIGlkPSJ0aXRsZTczMDY5Ij5wb2x5Z29uNDA3NDwvdGl0bGU+JiN4YTsJPHBhdGggaWQ9InBhdGg3MzA3MSIgaW5rc2NhcGU6Y29ubmVjdG9yLWN1cnZhdHVyZT0iMCIgc3R5bGU9ImZpbGw6IzU1NkE4QTsiIGQ9Ik0wLDgzLjUydjEzLjA5bDExLjI1LDYuMjZWOTAuMThMMCw4My41MnoiLz4mI3hhOzwvZz4mI3hhOzxnIGlkPSJzaGFwZTU4MTQtMzciIHRyYW5zZm9ybT0idHJhbnNsYXRlKDQ3LjYzOTcwNywtOTAuMjIpIj4mI3hhOwk8dGl0bGUgaWQ9InRpdGxlNzMwNzQiPnBvbHlnb240MDc2PC90aXRsZT4mI3hhOwk8cGF0aCBpZD0icGF0aDczMDc2IiBpbmtzY2FwZTpjb25uZWN0b3ItY3VydmF0dXJlPSIwIiBzdHlsZT0iZmlsbDojMkJDN0Y0OyIgZD0iTTEwLjg0LDkwLjIyTDAsOTYuNDlsMTAuNDQsNi4zOGwxMC44NC02LjYyICAgTDEwLjg0LDkwLjIyeiIvPiYjeGE7PC9nPiYjeGE7PGcgaWQ9InNoYXBlNTgxNS0zOSIgdHJhbnNmb3JtPSJ0cmFuc2xhdGUoNzAuODc0NzA3LC01NS4zOSkiPiYjeGE7CTx0aXRsZSBpZD0idGl0bGU3MzA3OSI+cG9seWdvbjQwNzg8L3RpdGxlPiYjeGE7CTxwYXRoIGlkPSJwYXRoNzMwODEiIGlua3NjYXBlOmNvbm5lY3Rvci1jdXJ2YXR1cmU9IjAiIHN0eWxlPSJmaWxsOiM5Mzk1OTg7IiBkPSJNMTEuMjUsOTYuMzNWODIuNzdMMCw4OS43M3YxMy4xNEwxMS4yNSw5Ni4zM3oiLz4mI3hhOzwvZz4mI3hhOzxnIGlkPSJzaGFwZTU4MTYtNDEiIHRyYW5zZm9ybT0idHJhbnNsYXRlKDM0Ljg3NDcwNywtNTUuMzkpIj4mI3hhOwk8dGl0bGUgaWQ9InRpdGxlNzMwODQiPnBvbHlnb240MDgwPC90aXRsZT4mI3hhOwk8cGF0aCBpZD0icGF0aDczMDg2IiBpbmtzY2FwZTpjb25uZWN0b3ItY3VydmF0dXJlPSIwIiBzdHlsZT0iZmlsbDojNTU2QThBOyIgZD0iTTAsOTYuMzNsMTEuMjUsNi41NFY4OS43M0wwLDgyLjc3Vjk2LjMzeiIvPiYjeGE7PC9nPiYjeGE7PGcgaWQ9InNoYXBlNTgxNy00MyIgdHJhbnNmb3JtPSJ0cmFuc2xhdGUoNTguODc0NzA3LC02Mi40MSkiPiYjeGE7CTx0aXRsZSBpZD0idGl0bGU3MzA4OSI+cG9seWdvbjQwODI8L3RpdGxlPiYjeGE7CTxwYXRoIGlkPSJwYXRoNzMwOTEiIGlua3NjYXBlOmNvbm5lY3Rvci1jdXJ2YXR1cmU9IjAiIHN0eWxlPSJmaWxsOiM5Mzk1OTg7IiBkPSJNMTEuMjUsOTYuMjFWODMuNThMMCw5MC4yNHYxMi42M0wxMS4yNSw5Ni4yMXoiLz4mI3hhOzwvZz4mI3hhOzxnIGlkPSJzaGFwZTU4MTgtNDUiIHRyYW5zZm9ybT0idHJhbnNsYXRlKDU4Ljg3NDcwNywtNDguNTY1KSI+JiN4YTsJPHRpdGxlIGlkPSJ0aXRsZTczMDk0Ij5wb2x5Z29uNDA4NDwvdGl0bGU+JiN4YTsJPHBhdGggaWQ9InBhdGg3MzA5NiIgaW5rc2NhcGU6Y29ubmVjdG9yLWN1cnZhdHVyZT0iMCIgc3R5bGU9ImZpbGw6IzkzOTU5ODsiIGQ9Ik0wLDEwMi44N2wxMS4yNS02LjI2VjgzLjUyTDAsOTAuMThWMTAyLjg3eiIvPiYjeGE7PC9nPiYjeGE7PGcgaWQ9InNoYXBlNTgyMC00OCIgdHJhbnNmb3JtPSJ0cmFuc2xhdGUoLTguMjUwMjkyNSwtMS40OTgzKSI+JiN4YTsJPHRpdGxlIGlkPSJ0aXRsZTczMTAyIj5yZWN0Mzk3MjwvdGl0bGU+JiN4YTsJPHJlY3QgaWQ9InJlY3Q3MzEwNCIgeD0iMCIgeT0iMzUuMzciIHN0eWxlPSJmaWxsOm5vbmU7IiB3aWR0aD0iNjkuNzUiIGhlaWdodD0iNjcuNSIvPiYjeGE7PC9nPiYjeGE7PGcgaWQ9Imdyb3VwNTgyMS01MCIgdHJhbnNmb3JtPSJ0cmFuc2xhdGUoLTIuOTI1MTc1OWUtNCwtOC43OTU4KSI+JiN4YTsJPHRpdGxlIGlkPSJ0aXRsZTczMTA3Ij5nMzk5ODwvdGl0bGU+JiN4YTsJPGcgaWQ9InNoYXBlNTgyMi01MSIgdHJhbnNmb3JtPSJ0cmFuc2xhdGUoMTIuNjQ1LC0yNy4zMjI1KSI+JiN4YTsJCTx0aXRsZSBpZD0idGl0bGU3MzEwOSI+cG9seWdvbjM5NzQ8L3RpdGxlPiYjeGE7CQk8cGF0aCBpZD0icGF0aDczMTExIiBpbmtzY2FwZTpjb25uZWN0b3ItY3VydmF0dXJlPSIwIiBzdHlsZT0iZmlsbDojMkJDN0Y0OyIgZD0iTTEwLjU2LDg5LjY4TDAsOTYuMTJsMTAuOTYsNi43NWwxMC41Ni02LjUgICAgTDEwLjU2LDg5LjY4eiIvPiYjeGE7CTwvZz4mI3hhOwk8ZyBpZD0ic2hhcGU1ODIzLTUzIiB0cmFuc2Zvcm09InRyYW5zbGF0ZSgxMiwtMTMuODQ1KSI+JiN4YTsJCTx0aXRsZSBpZD0idGl0bGU3MzExNCI+cG9seWdvbjM5NzY8L3RpdGxlPiYjeGE7CQk8cGF0aCBpZD0icGF0aDczMTE2IiBpbmtzY2FwZTpjb25uZWN0b3ItY3VydmF0dXJlPSIwIiBzdHlsZT0iZmlsbDojNTU2QThBOyIgZD0iTTAsOTYuMjFsMTEuMjUsNi42NlY5MC4yNEwwLDgzLjU4Vjk2LjIxeiIvPiYjeGE7CTwvZz4mI3hhOwk8ZyBpZD0ic2hhcGU1ODI0LTU1IiB0cmFuc2Zvcm09InRyYW5zbGF0ZSgyNC4xNSwtMzQuMzk1KSI+JiN4YTsJCTx0aXRsZSBpZD0idGl0bGU3MzExOSI+cG9seWdvbjM5Nzg8L3RpdGxlPiYjeGE7CQk8cGF0aCBpZD0icGF0aDczMTIxIiBpbmtzY2FwZTpjb25uZWN0b3ItY3VydmF0dXJlPSIwIiBzdHlsZT0iZmlsbDojMkJDN0Y0OyIgZD0iTTEwLjk2LDEwMi44N2wxMS4xMS02Ljg0bC0xMS4yMS02LjQ4TDAsOTYuMTggICAgTDEwLjk2LDEwMi44N3oiLz4mI3hhOwk8L2c+JiN4YTsJPGcgaWQ9InNoYXBlNTgyNS01NyIgdHJhbnNmb3JtPSJ0cmFuc2xhdGUoMCwtMjEuMTEyNSkiPiYjeGE7CQk8dGl0bGUgaWQ9InRpdGxlNzMxMjQiPnBvbHlnb24zOTgwPC90aXRsZT4mI3hhOwkJPHBhdGggaWQ9InBhdGg3MzEyNiIgaW5rc2NhcGU6Y29ubmVjdG9yLWN1cnZhdHVyZT0iMCIgc3R5bGU9ImZpbGw6IzU1NkE4QTsiIGQ9Ik0wLDgzLjMzdjEyLjU4bDExLjI1LDYuOTZWOTAuMjRMMCw4My4zMVY4My4zM3oiLz4mI3hhOwk8L2c+JiN4YTsJPGcgaWQ9InNoYXBlNTgyNi01OSIgdHJhbnNmb3JtPSJ0cmFuc2xhdGUoMzYsLTIxLjExMjUpIj4mI3hhOwkJPHRpdGxlIGlkPSJ0aXRsZTczMTI5Ij5wb2x5Z29uMzk4MjwvdGl0bGU+JiN4YTsJCTxwYXRoIGlkPSJwYXRoNzMxMzEiIGlua3NjYXBlOmNvbm5lY3Rvci1jdXJ2YXR1cmU9IjAiIHN0eWxlPSJmaWxsOiM5Mzk1OTg7IiBkPSJNMTEuMjUsODMuMzN2LTAuMDJMMCw5MC4yNHYxMi42M2wxMS4yNS02Ljk2ICAgIFY4My4zM3oiLz4mI3hhOwk8L2c+JiN4YTsJPGcgaWQ9InNoYXBlNTgyNy02MSIgdHJhbnNmb3JtPSJ0cmFuc2xhdGUoMC45OTc1LC0zNC42NDI1KSI+JiN4YTsJCTx0aXRsZSBpZD0idGl0bGU3MzEzNCI+cG9seWdvbjM5ODQ8L3RpdGxlPiYjeGE7CQk8cGF0aCBpZD0icGF0aDczMTM2IiBpbmtzY2FwZTpjb25uZWN0b3ItY3VydmF0dXJlPSIwIiBzdHlsZT0iZmlsbDojMkJDN0Y0OyIgZD0iTTIxLjI2LDk2LjQybC0xMC40Ny02LjM4TDAsOTYuMjdsMTAuNzEsNi42ICAgIEwyMS4yNiw5Ni40MnoiLz4mI3hhOwk8L2c+JiN4YTsJPGcgaWQ9InNoYXBlNTgyOC02MyIgdHJhbnNmb3JtPSJ0cmFuc2xhdGUoMTIpIj4mI3hhOwkJPHRpdGxlIGlkPSJ0aXRsZTczMTM5Ij5wb2x5Z29uMzk4NjwvdGl0bGU+JiN4YTsJCTxwYXRoIGlkPSJwYXRoNzMxNDEiIGlua3NjYXBlOmNvbm5lY3Rvci1jdXJ2YXR1cmU9IjAiIHN0eWxlPSJmaWxsOiM1NTZBOEE7IiBkPSJNMCw4My41MnYxMy4wOWwxMS4yNSw2LjI2VjkwLjE4TDAsODMuNTJ6Ii8+JiN4YTsJPC9nPiYjeGE7CTxnIGlkPSJzaGFwZTU4MjktNjUiIHRyYW5zZm9ybT0idHJhbnNsYXRlKDEyLjc2NSwtNDEuNjYyNSkiPiYjeGE7CQk8dGl0bGUgaWQ9InRpdGxlNzMxNDQiPnBvbHlnb24zOTg4PC90aXRsZT4mI3hhOwkJPHBhdGggaWQ9InBhdGg3MzE0NiIgaW5rc2NhcGU6Y29ubmVjdG9yLWN1cnZhdHVyZT0iMCIgc3R5bGU9ImZpbGw6IzJCQzdGNDsiIGQ9Ik0xMC44NCw5MC4yM0wwLDk2LjVsMTAuNDQsNi4zN2wxMC44NC02LjYxICAgIEwxMC44NCw5MC4yM3oiLz4mI3hhOwk8L2c+JiN4YTsJPGcgaWQ9InNoYXBlNTgzMC02NyIgdHJhbnNmb3JtPSJ0cmFuc2xhdGUoMzYsLTYuODI1KSI+JiN4YTsJCTx0aXRsZSBpZD0idGl0bGU3MzE0OSI+cG9seWdvbjM5OTA8L3RpdGxlPiYjeGE7CQk8cGF0aCBpZD0icGF0aDczMTUxIiBpbmtzY2FwZTpjb25uZWN0b3ItY3VydmF0dXJlPSIwIiBzdHlsZT0iZmlsbDojOTM5NTk4OyIgZD0iTTExLjI1LDk2LjMzVjgyLjc3TDAsODkuNzR2MTMuMTNMMTEuMjUsOTYuMzN6Ii8+JiN4YTsJPC9nPiYjeGE7CTxnIGlkPSJzaGFwZTU4MzEtNjkiIHRyYW5zZm9ybT0idHJhbnNsYXRlKDAsLTYuODI1KSI+JiN4YTsJCTx0aXRsZSBpZD0idGl0bGU3MzE1NCI+cG9seWdvbjM5OTI8L3RpdGxlPiYjeGE7CQk8cGF0aCBpZD0icGF0aDczMTU2IiBpbmtzY2FwZTpjb25uZWN0b3ItY3VydmF0dXJlPSIwIiBzdHlsZT0iZmlsbDojNTU2QThBOyIgZD0iTTAsOTYuMzNsMTEuMjUsNi41NFY4OS43NEwwLDgyLjc3Vjk2LjMzeiIvPiYjeGE7CTwvZz4mI3hhOwk8ZyBpZD0ic2hhcGU1ODMyLTcxIiB0cmFuc2Zvcm09InRyYW5zbGF0ZSgyNCwtMTMuODQ1KSI+JiN4YTsJCTx0aXRsZSBpZD0idGl0bGU3MzE1OSI+cG9seWdvbjM5OTQ8L3RpdGxlPiYjeGE7CQk8cGF0aCBpZD0icGF0aDczMTYxIiBpbmtzY2FwZTpjb25uZWN0b3ItY3VydmF0dXJlPSIwIiBzdHlsZT0iZmlsbDojOTM5NTk4OyIgZD0iTTExLjI1LDk2LjIxVjgzLjU4TDAsOTAuMjR2MTIuNjNMMTEuMjUsOTYuMjF6Ii8+JiN4YTsJPC9nPiYjeGE7CTxnIGlkPSJzaGFwZTU4MzMtNzMiIHRyYW5zZm9ybT0idHJhbnNsYXRlKDI0KSI+JiN4YTsJCTx0aXRsZSBpZD0idGl0bGU3MzE2NCI+cG9seWdvbjM5OTY8L3RpdGxlPiYjeGE7CQk8cGF0aCBpZD0icGF0aDczMTY2IiBpbmtzY2FwZTpjb25uZWN0b3ItY3VydmF0dXJlPSIwIiBzdHlsZT0iZmlsbDojOTM5NTk4OyIgZD0iTTAsMTAyLjg3bDExLjI1LTYuMjZWODMuNTJMMCw5MC4xOFYxMDIuODd6Ii8+JiN4YTsJPC9nPiYjeGE7PC9nPiYjeGE7PGcgaWQ9InNoYXBlNTgzNS03NiIgdHJhbnNmb3JtPSJ0cmFuc2xhdGUoNjEuNDk5NzA3LC02LjA5NDI0KSI+JiN4YTsJPHRpdGxlIGlkPSJ0aXRsZTczMTczIj5yZWN0NDAwMjwvdGl0bGU+JiN4YTsJPHJlY3QgaWQ9InJlY3Q3MzE3NSIgeD0iMCIgeT0iMzUuMzciIHN0eWxlPSJmaWxsOm5vbmU7IiB3aWR0aD0iNjkuNzUiIGhlaWdodD0iNjcuNSIvPiYjeGE7PC9nPiYjeGE7PGcgaWQ9Imdyb3VwNTgzNi03OCIgdHJhbnNmb3JtPSJ0cmFuc2xhdGUoNjkuNzQ5NzA3LC0xMy4zOTE3NCkiPiYjeGE7CTx0aXRsZSBpZD0idGl0bGU3MzE3OCI+ZzQwMzY8L3RpdGxlPiYjeGE7CTxnIGlkPSJzaGFwZTU4MzctNzkiIHRyYW5zZm9ybT0idHJhbnNsYXRlKDEyLC0xMy44NDUpIj4mI3hhOwkJPHRpdGxlIGlkPSJ0aXRsZTczMTgwIj5wb2x5Z29uNDAwNDwvdGl0bGU+JiN4YTsJCTxwYXRoIGlkPSJwYXRoNzMxODIiIGlua3NjYXBlOmNvbm5lY3Rvci1jdXJ2YXR1cmU9IjAiIHN0eWxlPSJmaWxsOiM1NTZBOEE7IiBkPSJNMCw5Ni4yMWwxMS4yNSw2LjY2VjkwLjI0TDAsODMuNThWOTYuMjF6Ii8+JiN4YTsJPC9nPiYjeGE7CTxnIGlkPSJzaGFwZTU4MzgtODEiIHRyYW5zZm9ybT0idHJhbnNsYXRlKDAsLTIxLjExMjUpIj4mI3hhOwkJPHRpdGxlIGlkPSJ0aXRsZTczMTg1Ij5wb2x5Z29uNDAwNjwvdGl0bGU+JiN4YTsJCTxwYXRoIGlkPSJwYXRoNzMxODciIGlua3NjYXBlOmNvbm5lY3Rvci1jdXJ2YXR1cmU9IjAiIHN0eWxlPSJmaWxsOiM1NTZBOEE7IiBkPSJNMCw4My4zM3YxMi41OGwxMS4yNSw2Ljk2VjkwLjI0TDAsODMuMzFWODMuMzN6Ii8+JiN4YTsJPC9nPiYjeGE7CTxnIGlkPSJzaGFwZTU4MzktODMiIHRyYW5zZm9ybT0idHJhbnNsYXRlKDM2LC0yMS4xMTI1KSI+JiN4YTsJCTx0aXRsZSBpZD0idGl0bGU3MzE5MCI+cG9seWdvbjQwMDg8L3RpdGxlPiYjeGE7CQk8cGF0aCBpZD0icGF0aDczMTkyIiBpbmtzY2FwZTpjb25uZWN0b3ItY3VydmF0dXJlPSIwIiBzdHlsZT0iZmlsbDojOTM5NTk4OyIgZD0iTTExLjI1LDgzLjMzdi0wLjAyTDAsOTAuMjR2MTIuNjNsMTEuMjUtNi45NiAgICBWODMuMzN6Ii8+JiN4YTsJPC9nPiYjeGE7CTxnIGlkPSJzaGFwZTU4NDAtODUiIHRyYW5zZm9ybT0idHJhbnNsYXRlKDEyKSI+JiN4YTsJCTx0aXRsZSBpZD0idGl0bGU3MzE5NSI+cG9seWdvbjQwMTA8L3RpdGxlPiYjeGE7CQk8cGF0aCBpZD0icGF0aDczMTk3IiBpbmtzY2FwZTpjb25uZWN0b3ItY3VydmF0dXJlPSIwIiBzdHlsZT0iZmlsbDojNTU2QThBOyIgZD0iTTAsODMuNTJ2MTMuMDlsMTEuMjUsNi4yNlY5MC4xOEwwLDgzLjUyeiIvPiYjeGE7CTwvZz4mI3hhOwk8ZyBpZD0ic2hhcGU1ODQxLTg3IiB0cmFuc2Zvcm09InRyYW5zbGF0ZSgzNiwtNi44MjUpIj4mI3hhOwkJPHRpdGxlIGlkPSJ0aXRsZTczMjAwIj5wb2x5Z29uNDAxMjwvdGl0bGU+JiN4YTsJCTxwYXRoIGlkPSJwYXRoNzMyMDIiIGlua3NjYXBlOmNvbm5lY3Rvci1jdXJ2YXR1cmU9IjAiIHN0eWxlPSJmaWxsOiM5Mzk1OTg7IiBkPSJNMTEuMjUsOTYuMzNWODIuNzdMMCw4OS43NHYxMy4xM0wxMS4yNSw5Ni4zM3oiLz4mI3hhOwk8L2c+JiN4YTsJPGcgaWQ9InNoYXBlNTg0Mi04OSIgdHJhbnNmb3JtPSJ0cmFuc2xhdGUoMCwtNi44MjUpIj4mI3hhOwkJPHRpdGxlIGlkPSJ0aXRsZTczMjA1Ij5wb2x5Z29uNDAxNDwvdGl0bGU+JiN4YTsJCTxwYXRoIGlkPSJwYXRoNzMyMDciIGlua3NjYXBlOmNvbm5lY3Rvci1jdXJ2YXR1cmU9IjAiIHN0eWxlPSJmaWxsOiM1NTZBOEE7IiBkPSJNMCw5Ni4zM2wxMS4yNSw2LjU0Vjg5Ljc0TDAsODIuNzdWOTYuMzN6Ii8+JiN4YTsJPC9nPiYjeGE7CTxnIGlkPSJzaGFwZTU4NDMtOTEiIHRyYW5zZm9ybT0idHJhbnNsYXRlKDI0LC0xMy44NDUpIj4mI3hhOwkJPHRpdGxlIGlkPSJ0aXRsZTczMjEwIj5wb2x5Z29uNDAxNjwvdGl0bGU+JiN4YTsJCTxwYXRoIGlkPSJwYXRoNzMyMTIiIGlua3NjYXBlOmNvbm5lY3Rvci1jdXJ2YXR1cmU9IjAiIHN0eWxlPSJmaWxsOiM5Mzk1OTg7IiBkPSJNMTEuMjUsOTYuMjFWODMuNThMMCw5MC4yNHYxMi42M0wxMS4yNSw5Ni4yMXoiLz4mI3hhOwk8L2c+JiN4YTsJPGcgaWQ9InNoYXBlNTg0NC05MyIgdHJhbnNmb3JtPSJ0cmFuc2xhdGUoMTIuNjQ1LC00MS41NzI1KSI+JiN4YTsJCTx0aXRsZSBpZD0idGl0bGU3MzIxNSI+cG9seWdvbjQwMTg8L3RpdGxlPiYjeGE7CQk8cGF0aCBpZD0icGF0aDczMjE3IiBpbmtzY2FwZTpjb25uZWN0b3ItY3VydmF0dXJlPSIwIiBzdHlsZT0iZmlsbDojMkJDN0Y0OyIgZD0iTTEwLjU2LDg5LjY4TDAsOTYuMTJsMTAuOTYsNi43NWwxMC41Ni02LjUgICAgTDEwLjU2LDg5LjY4eiIvPiYjeGE7CTwvZz4mI3hhOwk8ZyBpZD0ic2hhcGU1ODQ1LTk1IiB0cmFuc2Zvcm09InRyYW5zbGF0ZSgxMiwtMjguMDk1KSI+JiN4YTsJCTx0aXRsZSBpZD0idGl0bGU3MzIyMCI+cG9seWdvbjQwMjA8L3RpdGxlPiYjeGE7CQk8cGF0aCBpZD0icGF0aDczMjIyIiBpbmtzY2FwZTpjb25uZWN0b3ItY3VydmF0dXJlPSIwIiBzdHlsZT0iZmlsbDojNTU2QThBOyIgZD0iTTAsOTYuMjFsMTEuMjUsNi42NlY5MC4yNEwwLDgzLjU4Vjk2LjIxeiIvPiYjeGE7CTwvZz4mI3hhOwk8ZyBpZD0ic2hhcGU1ODQ2LTk3IiB0cmFuc2Zvcm09InRyYW5zbGF0ZSgyNC4xNSwtNDguNjQ1KSI+JiN4YTsJCTx0aXRsZSBpZD0idGl0bGU3MzIyNSI+cG9seWdvbjQwMjI8L3RpdGxlPiYjeGE7CQk8cGF0aCBpZD0icGF0aDczMjI3IiBpbmtzY2FwZTpjb25uZWN0b3ItY3VydmF0dXJlPSIwIiBzdHlsZT0iZmlsbDojMkJDN0Y0OyIgZD0iTTEwLjk2LDEwMi44N2wxMS4xMS02Ljg0bC0xMS4yMS02LjQ4TDAsOTYuMTggICAgTDEwLjk2LDEwMi44N3oiLz4mI3hhOwk8L2c+JiN4YTsJPGcgaWQ9InNoYXBlNTg0Ny05OSIgdHJhbnNmb3JtPSJ0cmFuc2xhdGUoMCwtMzUuMzYyNSkiPiYjeGE7CQk8dGl0bGUgaWQ9InRpdGxlNzMyMzAiPnBvbHlnb240MDI0PC90aXRsZT4mI3hhOwkJPHBhdGggaWQ9InBhdGg3MzIzMiIgaW5rc2NhcGU6Y29ubmVjdG9yLWN1cnZhdHVyZT0iMCIgc3R5bGU9ImZpbGw6IzU1NkE4QTsiIGQ9Ik0wLDgzLjMzdjEyLjU4bDExLjI1LDYuOTZWOTAuMjRMMCw4My4zMVY4My4zM3oiLz4mI3hhOwk8L2c+JiN4YTsJPGcgaWQ9InNoYXBlNTg0OC0xMDEiIHRyYW5zZm9ybT0idHJhbnNsYXRlKDM2LC0zNS4zNjI1KSI+JiN4YTsJCTx0aXRsZSBpZD0idGl0bGU3MzIzNSI+cG9seWdvbjQwMjY8L3RpdGxlPiYjeGE7CQk8cGF0aCBpZD0icGF0aDczMjM3IiBpbmtzY2FwZTpjb25uZWN0b3ItY3VydmF0dXJlPSIwIiBzdHlsZT0iZmlsbDojOTM5NTk4OyIgZD0iTTExLjI1LDgzLjMzdi0wLjAyTDAsOTAuMjR2MTIuNjNsMTEuMjUtNi45NiAgICBWODMuMzN6Ii8+JiN4YTsJPC9nPiYjeGE7CTxnIGlkPSJzaGFwZTU4NDktMTAzIiB0cmFuc2Zvcm09InRyYW5zbGF0ZSgwLjk5NzUsLTQ4Ljg5MjUpIj4mI3hhOwkJPHRpdGxlIGlkPSJ0aXRsZTczMjQwIj5wb2x5Z29uNDAyODwvdGl0bGU+JiN4YTsJCTxwYXRoIGlkPSJwYXRoNzMyNDIiIGlua3NjYXBlOmNvbm5lY3Rvci1jdXJ2YXR1cmU9IjAiIHN0eWxlPSJmaWxsOiMyQkM3RjQ7IiBkPSJNMjEuMjYsOTYuNDJsLTEwLjQ3LTYuMzhMMCw5Ni4yN2wxMC43MSw2LjYgICAgTDIxLjI2LDk2LjQyeiIvPiYjeGE7CTwvZz4mI3hhOwk8ZyBpZD0ic2hhcGU1ODUwLTEwNSIgdHJhbnNmb3JtPSJ0cmFuc2xhdGUoMTIuNzY1LC01NS45MDUpIj4mI3hhOwkJPHRpdGxlIGlkPSJ0aXRsZTczMjQ1Ij5wb2x5Z29uNDAzMDwvdGl0bGU+JiN4YTsJCTxwYXRoIGlkPSJwYXRoNzMyNDciIGlua3NjYXBlOmNvbm5lY3Rvci1jdXJ2YXR1cmU9IjAiIHN0eWxlPSJmaWxsOiMyQkM3RjQ7IiBkPSJNMTAuODQsOTAuMjJMMCw5Ni40OWwxMC40NCw2LjM4bDEwLjg0LTYuNjIgICAgTDEwLjg0LDkwLjIyeiIvPiYjeGE7CTwvZz4mI3hhOwk8ZyBpZD0ic2hhcGU1ODUxLTEwNyIgdHJhbnNmb3JtPSJ0cmFuc2xhdGUoMjQsLTI4LjA5NSkiPiYjeGE7CQk8dGl0bGUgaWQ9InRpdGxlNzMyNTAiPnBvbHlnb240MDMyPC90aXRsZT4mI3hhOwkJPHBhdGggaWQ9InBhdGg3MzI1MiIgaW5rc2NhcGU6Y29ubmVjdG9yLWN1cnZhdHVyZT0iMCIgc3R5bGU9ImZpbGw6IzkzOTU5ODsiIGQ9Ik0xMS4yNSw5Ni4yMVY4My41OEwwLDkwLjI0djEyLjYzTDExLjI1LDk2LjIxeiIvPiYjeGE7CTwvZz4mI3hhOwk8ZyBpZD0ic2hhcGU1ODUyLTEwOSIgdHJhbnNmb3JtPSJ0cmFuc2xhdGUoMjQpIj4mI3hhOwkJPHRpdGxlIGlkPSJ0aXRsZTczMjU1Ij5wb2x5Z29uNDAzNDwvdGl0bGU+JiN4YTsJCTxwYXRoIGlkPSJwYXRoNzMyNTciIGlua3NjYXBlOmNvbm5lY3Rvci1jdXJ2YXR1cmU9IjAiIHN0eWxlPSJmaWxsOiM5Mzk1OTg7IiBkPSJNMCwxMDIuODdsMTEuMjUtNi4yNlY4My41MkwwLDkwLjE4VjEwMi44N3oiLz4mI3hhOwk8L2c+JiN4YTs8L2c+JiN4YTs8L3N2Zz4=;" vertex="1" parent="1">
          <mxGeometry x="220" y="660" width="87.13" height="70" as="geometry" />
        </mxCell>
        <mxCell id="OC8hzQOqMFoO2Zi8FBlJ-9" value="" style="shape=image;verticalLabelPosition=bottom;labelBackgroundColor=#ffffff;verticalAlign=top;aspect=fixed;imageAspect=0;image=data:image/svg+xml,PHN2ZyB4bWxuczpjYz0iaHR0cDovL2NyZWF0aXZlY29tbW9ucy5vcmcvbnMjIiB4bWxuczpkYz0iaHR0cDovL3B1cmwub3JnL2RjL2VsZW1lbnRzLzEuMS8iIHhtbG5zOmlua3NjYXBlPSJodHRwOi8vd3d3Lmlua3NjYXBlLm9yZy9uYW1lc3BhY2VzL2lua3NjYXBlIiB4bWxuczpyZGY9Imh0dHA6Ly93d3cudzMub3JnLzE5OTkvMDIvMjItcmRmLXN5bnRheC1ucyMiIHhtbG5zOnNvZGlwb2RpPSJodHRwOi8vc29kaXBvZGkuc291cmNlZm9yZ2UubmV0L0RURC9zb2RpcG9kaS0wLmR0ZCIgeG1sbnM6c3ZnPSJodHRwOi8vd3d3LnczLm9yZy8yMDAwL3N2ZyIgeG1sbnM9Imh0dHA6Ly93d3cudzMub3JnLzIwMDAvc3ZnIiB4bWxuczp4bGluaz0iaHR0cDovL3d3dy53My5vcmcvMTk5OS94bGluayIgdmVyc2lvbj0iMS4xIiBpZD0ic3ZnNTY0MTEiIGlua3NjYXBlOnZlcnNpb249IjAuOTIuMyAoMjQwNTU0NiwgMjAxOC0wMy0xMSkiIHNvZGlwb2RpOmRvY25hbWU9ImF6dXJlX2NvbnRhaW5lcl9pbnN0YW5jZXMuc3ZnIiB4PSIwcHgiIHk9IjBweCIgdmlld0JveD0iMCAwIDM3LjcgMzcuOCIgc3R5bGU9ImVuYWJsZS1iYWNrZ3JvdW5kOm5ldyAwIDAgMzcuNyAzNy44OyIgeG1sOnNwYWNlPSJwcmVzZXJ2ZSI+JiN4YTs8c29kaXBvZGk6bmFtZWR2aWV3IGJvcmRlcmNvbG9yPSIjNjY2NjY2IiBib3JkZXJvcGFjaXR5PSIxIiBmaXQtbWFyZ2luLWJvdHRvbT0iMCIgZml0LW1hcmdpbi1sZWZ0PSIwIiBmaXQtbWFyZ2luLXJpZ2h0PSIwIiBmaXQtbWFyZ2luLXRvcD0iMCIgZ3JpZHRvbGVyYW5jZT0iMTAiIGd1aWRldG9sZXJhbmNlPSIxMCIgaWQ9Im5hbWVkdmlldzU2NDEzIiBpbmtzY2FwZTpjdXJyZW50LWxheWVyPSJzdmc1NjQxMSIgaW5rc2NhcGU6Y3g9IjI3LjYxODI3MyIgaW5rc2NhcGU6Y3k9IjIyLjQ3Mzg3NCIgaW5rc2NhcGU6cGFnZW9wYWNpdHk9IjAiIGlua3NjYXBlOnBhZ2VzaGFkb3c9IjIiIGlua3NjYXBlOndpbmRvdy1oZWlnaHQ9IjEwMTciIGlua3NjYXBlOndpbmRvdy1tYXhpbWl6ZWQ9IjEiIGlua3NjYXBlOndpbmRvdy13aWR0aD0iMTkyMCIgaW5rc2NhcGU6d2luZG93LXg9Ii04IiBpbmtzY2FwZTp3aW5kb3cteT0iLTgiIGlua3NjYXBlOnpvb209IjEwLjQyNTkxNCIgb2JqZWN0dG9sZXJhbmNlPSIxMCIgcGFnZWNvbG9yPSIjZmZmZmZmIiBzaG93Z3JpZD0iZmFsc2UiPiYjeGE7CTwvc29kaXBvZGk6bmFtZWR2aWV3PiYjeGE7PGcgaWQ9Imc1NjQwOSIgdHJhbnNmb3JtPSJ0cmFuc2xhdGUoLTEyLjI4NjgzNiwtMTIuMjgyMzczKSI+JiN4YTsJPHRpdGxlIGlkPSJ0aXRsZTU2MzY1Ij5QYWdlLTE8L3RpdGxlPiYjeGE7CTxnIGlkPSJncm91cDU3NjEtMSIgdHJhbnNmb3JtPSJ0cmFuc2xhdGUoMTIuNDQxOCwtMTIuMjg5MikiPiYjeGE7CQk8dGl0bGUgaWQ9InRpdGxlNTYzNjciPkF6dXJlIENvbnRhaW5lciBJbnN0YW5jZXM8L3RpdGxlPiYjeGE7CQk8ZyBpZD0ic2hhcGU1NzYyLTIiIHRyYW5zZm9ybT0idHJhbnNsYXRlKDAsLTEzLjYyOTMpIj4mI3hhOwkJCTx0aXRsZSBpZD0idGl0bGU1NjM2OSI+U2hlZXQuNTc2MjwvdGl0bGU+JiN4YTsJCQk8cGF0aCBpZD0icGF0aDU2MzcxIiBpbmtzY2FwZTpjb25uZWN0b3ItY3VydmF0dXJlPSIwIiBzdHlsZT0iZmlsbDojRkZGRkZGOyIgZD0iTTMxLjUsNDYuNzVjLTAuMjctNC45OC00LjUyLTguOC05LjUtOC41NCAgICAgYy0yLjc0LDAuMTUtNS4yNiwxLjUzLTYuODYsMy43NmMtMy4xMy0yLjQxLTcuNjItMS44My0xMC4wMywxLjI5Yy0xLjM0LDEuNzQtMS44MSw0LTEuMjcsNi4xM2MtMy40MiwxLjU0LTQuOTQsNS41Ny0zLjM5LDguOTkgICAgIGMxLjEsMi40MywzLjUyLDQsNi4xOSwzLjk5aDIzYzQuMzgtMC4wMSw3LjkyLTMuNTYsNy45MS03Ljk0QzM3LjU0LDUwLjc5LDM1LjA0LDQ3LjYxLDMxLjUsNDYuNzV6Ii8+JiN4YTsJCTwvZz4mI3hhOwkJPGcgaWQ9InNoYXBlNTc2My00IiB0cmFuc2Zvcm09InRyYW5zbGF0ZSgwLC0xMy42MjkzKSI+JiN4YTsJCQk8dGl0bGUgaWQ9InRpdGxlNTYzNzQiPlNoZWV0LjU3NjM8L3RpdGxlPiYjeGE7CQkJPHBhdGggaWQ9InBhdGg1NjM3NiIgaW5rc2NhcGU6Y29ubmVjdG9yLWN1cnZhdHVyZT0iMCIgc3R5bGU9ImZpbGw6IzI3QTlFMTtmaWxsLW9wYWNpdHk6MC42OyIgZD0iTTMxLjUsNDYuNzUgICAgIGMtMC4yNy00Ljk4LTQuNTItOC44LTkuNS04LjU0Yy0yLjc0LDAuMTUtNS4yNiwxLjUzLTYuODYsMy43NmMtMy4xMy0yLjQxLTcuNjItMS44My0xMC4wMywxLjI5Yy0xLjM0LDEuNzQtMS44MSw0LTEuMjcsNi4xMyAgICAgYy0zLjQyLDEuNTQtNC45NCw1LjU3LTMuMzksOC45OWMxLjEsMi40MywzLjUyLDQsNi4xOSwzLjk5aDIzYzQuMzgtMC4wMSw3LjkyLTMuNTYsNy45MS03Ljk0ICAgICBDMzcuNTQsNTAuNzksMzUuMDQsNDcuNjEsMzEuNSw0Ni43NXoiLz4mI3hhOwkJPC9nPiYjeGE7CQk8ZyBpZD0ic2hhcGU1NzY0LTYiIHRyYW5zZm9ybT0idHJhbnNsYXRlKDguODU4MjQpIj4mI3hhOwkJCTx0aXRsZSBpZD0idGl0bGU1NjM3OSI+U2hlZXQuNTc2NDwvdGl0bGU+JiN4YTsJCQk8cGF0aCBpZD0icGF0aDU2MzgxIiBpbmtzY2FwZTpjb25uZWN0b3ItY3VydmF0dXJlPSIwIiBzdHlsZT0iZmlsbDojNjcyQTdBOyIgZD0iTTAuNzYsNDEuMTdDMC4zNCw0MS4xNywwLDQxLjUxLDAsNDEuOTMgICAgIGMwLDAsMCwwLDAsMGwwLDE5LjY4YzAsMC40MiwwLjM0LDAuNzYsMC43NiwwLjc2YzAsMCwwLDAsMCwwbDE4LjE3LDBjMC40MiwwLDAuNzYtMC4zNCwwLjc2LTAuNzZsMC0xOS42OSAgICAgYzAtMC40Mi0wLjM0LTAuNzYtMC43Ni0wLjc2aDBMMC43Niw0MS4xN3oiLz4mI3hhOwkJPC9nPiYjeGE7CQk8ZyBpZD0ic2hhcGU1NzY1LTgiIHRyYW5zZm9ybT0idHJhbnNsYXRlKDIwLjE3ODEsLTI1Ljc0NDMpIj4mI3hhOwkJCTx0aXRsZSBpZD0idGl0bGU1NjM4NCI+U2hlZXQuNTc2NTwvdGl0bGU+JiN4YTsJCTwvZz4mI3hhOwkJPGcgaWQ9InNoYXBlNTc2Ni05IiB0cmFuc2Zvcm09InRyYW5zbGF0ZSgyNi4yMzU2LC0yMi43MTU1KSI+JiN4YTsJCQk8dGl0bGUgaWQ9InRpdGxlNTYzODciPlNoZWV0LjU3NjY8L3RpdGxlPiYjeGE7CQk8L2c+JiN4YTsJCTxnIGlkPSJzaGFwZTU3NjctMTAiIHRyYW5zZm9ybT0idHJhbnNsYXRlKDE0LjkxNTcsLTIxLjIwMTIpIj4mI3hhOwkJCTx0aXRsZSBpZD0idGl0bGU1NjM5MCI+U2hlZXQuNTc2NzwvdGl0bGU+JiN4YTsJCQk8cGF0aCBpZD0icGF0aDU2MzkyIiBpbmtzY2FwZTpjb25uZWN0b3ItY3VydmF0dXJlPSIwIiBzdHlsZT0iZmlsbDojRkZGRkZGOyIgZD0iTTIuMjcsNjIuMzd2LTUuM0gwbDMuNzktNS4zbDMuNzgsNS4zSDUuM3Y1LjMgICAgIEgyLjI3eiIvPiYjeGE7CQk8L2c+JiN4YTsJCTxnIGlkPSJzaGFwZTU3NjgtMTIiIHRyYW5zZm9ybT0idHJhbnNsYXRlKDIwLjE3ODEsLTI1Ljc0NDMpIj4mI3hhOwkJCTx0aXRsZSBpZD0idGl0bGU1NjM5NSI+U2hlZXQuNTc2ODwvdGl0bGU+JiN4YTsJCTwvZz4mI3hhOwkJPGcgaWQ9InNoYXBlNTc2OS0xMyIgdHJhbnNmb3JtPSJ0cmFuc2xhdGUoMTEuMTI5OCwtMi4yNzE1NSkiPiYjeGE7CQkJPHRpdGxlIGlkPSJ0aXRsZTU2Mzk4Ij5TaGVldC41NzY5PC90aXRsZT4mI3hhOwkJCTxwYXRoIGlkPSJwYXRoNTY0MDAiIGlua3NjYXBlOmNvbm5lY3Rvci1jdXJ2YXR1cmU9IjAiIHN0eWxlPSJmaWxsOiNCOTIwMjU7ZmlsbC1vcGFjaXR5OjAuMzsiIGQ9Ik0xMy42Myw0NS43MUgwdjE2LjY2aDE1LjE0ICAgICBWNDUuNzFIMTMuNjN6IE00LjU0LDYwLjg1SDEuNTFWNDcuMjJoMy4wM1Y2MC44NXogTTkuMDksNjAuODVINi4wNlY0Ny4yMmgzLjAzVjYwLjg1eiBNMTMuNjMsNjAuODVIMTAuNlY0Ny4yMmgzLjAzVjYwLjg1eiIvPiYjeGE7CQk8L2c+JiN4YTsJCTxnIGlkPSJzaGFwZTU3NzAtMTUiIHRyYW5zZm9ybT0idHJhbnNsYXRlKDExLjEyOTgsLTIuMjcxNTUpIj4mI3hhOwkJCTx0aXRsZSBpZD0idGl0bGU1NjQwMyI+U2hlZXQuNTc3MDwvdGl0bGU+JiN4YTsJCQk8cGF0aCBpZD0icGF0aDU2NDA1IiBpbmtzY2FwZTpjb25uZWN0b3ItY3VydmF0dXJlPSIwIiBzdHlsZT0iZmlsbDojRkZGRkZGOyIgZD0iTTEzLjYzLDQ1LjcxSDB2MTYuNjZoMTUuMTRWNDUuNzFIMTMuNjN6ICAgICAgTTQuNTQsNjAuODVIMS41MVY0Ny4yMmgzLjAzVjYwLjg1eiBNOS4wOSw2MC44NUg2LjA2VjQ3LjIyaDMuMDNWNjAuODV6IE0xMy42Myw2MC44NUgxMC42VjQ3LjIyaDMuMDNWNjAuODV6Ii8+JiN4YTsJCTwvZz4mI3hhOwk8L2c+JiN4YTs8L2c+JiN4YTs8L3N2Zz4=;" vertex="1" parent="1">
          <mxGeometry x="600" y="340.00000000000045" width="38" height="38" as="geometry" />
        </mxCell>
        <mxCell id="OC8hzQOqMFoO2Zi8FBlJ-11" value="" style="shape=image;verticalLabelPosition=bottom;labelBackgroundColor=#ffffff;verticalAlign=top;aspect=fixed;imageAspect=0;image=data:image/svg+xml,PHN2ZyB4bWxuczpkYz0iaHR0cDovL3B1cmwub3JnL2RjL2VsZW1lbnRzLzEuMS8iIHhtbG5zOmNjPSJodHRwOi8vY3JlYXRpdmVjb21tb25zLm9yZy9ucyMiIHhtbG5zOnJkZj0iaHR0cDovL3d3dy53My5vcmcvMTk5OS8wMi8yMi1yZGYtc3ludGF4LW5zIyIgeG1sbnM6c3ZnPSJodHRwOi8vd3d3LnczLm9yZy8yMDAwL3N2ZyIgeG1sbnM9Imh0dHA6Ly93d3cudzMub3JnLzIwMDAvc3ZnIiB4bWxuczpzb2RpcG9kaT0iaHR0cDovL3NvZGlwb2RpLnNvdXJjZWZvcmdlLm5ldC9EVEQvc29kaXBvZGktMC5kdGQiIHhtbG5zOmlua3NjYXBlPSJodHRwOi8vd3d3Lmlua3NjYXBlLm9yZy9uYW1lc3BhY2VzL2lua3NjYXBlIiB2ZXJzaW9uPSIxLjEiIGlkPSJzdmc3NjI4MyIgaW5rc2NhcGU6dmVyc2lvbj0iMC45Mi4zICgyNDA1NTQ2LCAyMDE4LTAzLTExKSIgc29kaXBvZGk6ZG9jbmFtZT0iZGF0YV9jYXRhbG9nLnN2ZyIgeD0iMHB4IiB5PSIwcHgiIHZpZXdCb3g9IjAgMCA4NC4yNiA4OS45OSIgeG1sOnNwYWNlPSJwcmVzZXJ2ZSIgd2lkdGg9Ijg0LjI2MDAwMiIgaGVpZ2h0PSI4OS45ODk5OTgiPjxtZXRhZGF0YSBpZD0ibWV0YWRhdGEyMjQ4NSI+PHJkZjpSREY+PGNjOldvcmsgcmRmOmFib3V0PSIiPjxkYzpmb3JtYXQ+aW1hZ2Uvc3ZnK3htbDwvZGM6Zm9ybWF0PjxkYzp0eXBlIHJkZjpyZXNvdXJjZT0iaHR0cDovL3B1cmwub3JnL2RjL2RjbWl0eXBlL1N0aWxsSW1hZ2UiLz48ZGM6dGl0bGUvPjwvY2M6V29yaz48L3JkZjpSREY+PC9tZXRhZGF0YT48ZGVmcyBpZD0iZGVmczIyNDgzIi8+JiN4YTs8ZmlsdGVyIGlkPSJmaWx0ZXJfMiI+JiN4YTsJPGZlR2F1c3NpYW5CbHVyIGlkPSJmZUdhdXNzaWFuQmx1cjc2MTg0IiBzdGREZXZpYXRpb249IjIiLz4mI3hhOzwvZmlsdGVyPiYjeGE7PHNvZGlwb2RpOm5hbWVkdmlldyBib3JkZXJjb2xvcj0iIzY2NjY2NiIgYm9yZGVyb3BhY2l0eT0iMSIgZml0LW1hcmdpbi1ib3R0b209IjAiIGZpdC1tYXJnaW4tbGVmdD0iMCIgZml0LW1hcmdpbi1yaWdodD0iMCIgZml0LW1hcmdpbi10b3A9IjAiIGdyaWR0b2xlcmFuY2U9IjEwIiBndWlkZXRvbGVyYW5jZT0iMTAiIGlkPSJuYW1lZHZpZXc3NjI4NSIgaW5rc2NhcGU6Y3VycmVudC1sYXllcj0ic3ZnNzYyODMiIGlua3NjYXBlOmN4PSItNDQuOTgzMjMyIiBpbmtzY2FwZTpjeT0iNDYuNTQ2ODk2IiBpbmtzY2FwZTpwYWdlb3BhY2l0eT0iMCIgaW5rc2NhcGU6cGFnZXNoYWRvdz0iMiIgaW5rc2NhcGU6d2luZG93LWhlaWdodD0iMTAxNyIgaW5rc2NhcGU6d2luZG93LW1heGltaXplZD0iMSIgaW5rc2NhcGU6d2luZG93LXdpZHRoPSIxOTIwIiBpbmtzY2FwZTp3aW5kb3cteD0iLTgiIGlua3NjYXBlOndpbmRvdy15PSItOCIgaW5rc2NhcGU6em9vbT0iNS42ODAyODEzIiBvYmplY3R0b2xlcmFuY2U9IjEwIiBwYWdlY29sb3I9IiNmZmZmZmYiIHNob3dncmlkPSJmYWxzZSI+JiN4YTsJPC9zb2RpcG9kaTpuYW1lZHZpZXc+JiN4YTsmI3hhOzxwYXRoIGlkPSJwYXRoNzYxOTciIGlua3NjYXBlOmNvbm5lY3Rvci1jdXJ2YXR1cmU9IjAiIHN0eWxlPSJmaWxsOiMwMDcyYzYiIGQ9Im0gNjQsNjQgaCAyLjg3IFYgMCBIIDE0LjUyIDEwLjc2IEMgOC45NiwwLjE4IDUuMiw0LjY2IDUuMiw1LjIgYyAwLDAuMTggMCw2MS44NSAwLDYxLjg1IDAsMS43OSAxLjQzLDMuNCAzLjQxLDMuNCBIIDU5LjcgdiAtMS4wNyB6Ii8+JiN4YTsmI3hhOzxwYXRoIGlkPSJwYXRoNzYyMDUiIGlua3NjYXBlOmNvbm5lY3Rvci1jdXJ2YXR1cmU9IjAiIHN0eWxlPSJmaWxsOiNlNWU1ZTUiIGQ9Im0gMTMuMjYsMi44NiBjIC0xLjYxLDAgLTIuMTUsMC4xOCAtMy41OCwxLjQ0IC0zLjA1LDIuNjkgMC43MSwyLjY5IDIuMTUsMi42OSBIIDU5LjY5IFYgNjkuMzcgTCA2NCw2My44MiBWIDIuODYgWiIvPiYjeGE7JiN4YTs8cGF0aCBpZD0icGF0aDc2MjEzIiBpbmtzY2FwZTpjb25uZWN0b3ItY3VydmF0dXJlPSIwIiBzdHlsZT0iZmlsbDojYTBhMWEyO2ZpbGwtb3BhY2l0eTowLjUiIGQ9Ik0gNTkuNyw2OS4zNyA2NCw2NCBWIDIuODYgbCAtNC4zLDQuMTMgeiIvPiYjeGE7JiN4YTs8cGF0aCBpZD0icGF0aDc2MjIxIiBpbmtzY2FwZTpjb25uZWN0b3ItY3VydmF0dXJlPSIwIiBzdHlsZT0iZmlsbDojYTBhMWEyIiBkPSJtIDEzLjI3LDM4IGMgMCwxLjQ0IC0xLjA4LDIuNTEgLTIuNTEsMi41MSBIIDIuNTEgQyAxLjA4LDQwLjUxIDAsMzkuNDQgMCwzOCAwLDM2LjU3IDEuMDgsMzUuNSAyLjUxLDM1LjUgaCA4LjI1IGMgMS40MywtMC4xOCAyLjUxLDEuMDcgMi41MSwyLjUgeiIvPiYjeGE7JiN4YTs8cGF0aCBpZD0icGF0aDc2MjI5IiBpbmtzY2FwZTpjb25uZWN0b3ItY3VydmF0dXJlPSIwIiBzdHlsZT0iZmlsbDojYTBhMWEyIiBkPSJtIDEzLjI3LDE5LjU0IGMgMCwxLjQ0IC0xLjA4LDIuNTEgLTIuNTEsMi41MSBIIDIuNTEgQyAxLjA4LDIyLjA1IDAsMjAuOTggMCwxOS41NCBjIDAsLTEuNDMgMS4wOCwtMi41IDIuNTEsLTIuNSBoIDguMjUgYyAxLjQzLDAgMi41MSwxLjI1IDIuNTEsMi41IHoiLz4mI3hhOyYjeGE7PHBhdGggaWQ9InBhdGg3NjIzNyIgaW5rc2NhcGU6Y29ubmVjdG9yLWN1cnZhdHVyZT0iMCIgc3R5bGU9ImZpbGw6I2EwYTFhMiIgZD0ibSAxMy4yNyw1Ni4yOSBjIDAsMS40NCAtMS4wOCwyLjUxIC0yLjUxLDIuNTEgSCAyLjUxIEMgMS4wOCw1OC44IDAsNTcuNzMgMCw1Ni4yOSBjIDAsLTEuNDMgMS4wOCwtMi41IDIuNTEsLTIuNSBoIDguMjUgYyAxLjQzLDAgMi41MSwxLjA3IDIuNTEsMi41IHoiLz4mI3hhOyYjeGE7PHBhdGggaWQ9InBhdGg3NjI0NSIgaW5rc2NhcGU6Y29ubmVjdG9yLWN1cnZhdHVyZT0iMCIgc3R5bGU9ImZpbGw6IzM5OTljNiIgZD0ibSA0MC41MiwzOS44IHYgNDIuMTMgYyAwLDQuMyA5Ljg2LDcuODggMjEuODcsNy44OCBWIDM5LjYyIEggNDAuNTIgWiIvPiYjeGE7JiN4YTs8cGF0aCBpZD0icGF0aDc2MjUzIiBpbmtzY2FwZTpjb25uZWN0b3ItY3VydmF0dXJlPSIwIiBzdHlsZT0iZmlsbDojNTliNGQ5IiBkPSJtIDYyLjAzLDg5Ljk5IGggMC4zNiBjIDEyLjAxLDAgMjEuODcsLTMuNTggMjEuODcsLTcuODggViAzOS44IEggNjIuMDMgWiIvPiYjeGE7JiN4YTs8cGF0aCBpZD0icGF0aDc2MjYxIiBpbmtzY2FwZTpjb25uZWN0b3ItY3VydmF0dXJlPSIwIiBzdHlsZT0iZmlsbDojZmZmZmZmIiBkPSJtIDg0LjI2LDM5LjggYyAwLDQuMyAtOS44Niw3Ljg4IC0yMS44Nyw3Ljg4IC0xMi4wMSwwIC0yMS44NywtMy41OCAtMjEuODcsLTcuODggMCwtNC4zMSA5Ljg2LC03Ljg5IDIxLjg3LC03Ljg5IDEyLjAxLDAgMjEuODcsMy41OCAyMS44Nyw3Ljg5IHoiLz4mI3hhOyYjeGE7PHBhdGggaWQ9InBhdGg3NjI2OSIgaW5rc2NhcGU6Y29ubmVjdG9yLWN1cnZhdHVyZT0iMCIgc3R5bGU9ImZpbGw6IzdmYmEwMCIgZD0ibSA3OS43OCwzOS4yNyBjIDAsMi44NiAtNy44OSw1LjE5IC0xNy4zOSw1LjE5IC05LjUsMCAtMTcuMzksLTIuMzMgLTE3LjM5LC01LjE5IDAsLTIuODcgNy44OSwtNS4yIDE3LjM5LC01LjIgOS41LDAgMTcuMzksMi4zMyAxNy4zOSw1LjIgeiIvPiYjeGE7PGcgaWQ9InBhdGg3NjI3NCIgaW5rc2NhcGU6Y29ubmVjdG9yLWN1cnZhdHVyZT0iMCIgc3R5bGU9ImZpbHRlcjp1cmwoI2ZpbHRlcl8yKSI+JiN4YTsJPHBhdGggc3R5bGU9Im9wYWNpdHk6MC4yMjAwMDAwMjtmaWxsOiM1YjliZDUiIGQ9Im0gNzYuNTMsNDQuNDYgYyAyLjMzLC0wLjg5IDMuNTksLTEuOTcgMy41OSwtMy4yMiAwLC0yLjg3IC03Ljg5LC01LjIgLTE3LjM5LC01LjIgLTkuNjgsMCAtMTcuMzksMi4zMyAtMTcuMzksNS4yIDAsMS4yNSAxLjQzLDIuMzMgMy41OSwzLjIyIDMuMjIsLTEuMjUgOC4yNCwtMS45NyAxMy44LC0xLjk3IDUuNTYsMCAxMC41OCwwLjcyIDEzLjgsMS45NyB6IiBpZD0icGF0aDIyNDc4IiBpbmtzY2FwZTpjb25uZWN0b3ItY3VydmF0dXJlPSIwIi8+JiN4YTs8L2c+JiN4YTs8cGF0aCBpZD0icGF0aDc2Mjc3IiBpbmtzY2FwZTpjb25uZWN0b3ItY3VydmF0dXJlPSIwIiBzdHlsZT0iZmlsbDojYjhkNDMyIiBkPSJtIDc2LjE5LDQyLjQ4IGMgMi4zMywtMC44OSAzLjU5LC0xLjk3IDMuNTksLTMuMjIgMCwtMi44NyAtNy44OSwtNS4yIC0xNy4zOSwtNS4yIC05LjY4LDAgLTE3LjM5LDIuMzMgLTE3LjM5LDUuMiAwLDEuMjUgMS40MywyLjMzIDMuNTksMy4yMiAzLjIyLC0xLjI1IDguMjQsLTEuOTcgMTMuOCwtMS45NyA1LjU2LDAgMTAuNTgsMC43MiAxMy44LDEuOTcgeiIvPiYjeGE7PC9zdmc+;" vertex="1" parent="1">
          <mxGeometry x="90" y="640" width="84" height="90" as="geometry" />
        </mxCell>
      </root>
    </mxGraphModel>
  </diagram>
</mxfile>
